<?xml version="1.0" encoding="utf-8"?>

<!DOCTYPE svg PUBLIC "-//W3C//DTD SVG 1.1//EN" "http://www.w3.org/Graphics/SVG/1.1/DTD/svg11.dtd">
<svg version="1.1" id="Layer_1" xmlns="http://www.w3.org/2000/svg" xmlns:xlink="http://www.w3.org/1999/xlink" x="0px" y="0px"
	 viewBox="0 0 1702.375 1702.362" enable-background="new 0 0 1702.375 1702.362" xml:space="preserve">
<g>
	<path opacity="0.95" enable-background="new    " d="M925.866,52.259c15.17,5.53,16.883,3.828,23.031,0.687
		c-13.405,28.074-20.459,17.783-43.421,15.35c-40.132,12.402-58.204,62.003-57.68,80.201c-1.231,36.098,36.178,73.969,73.723,56.039
		c19.223-8.922,11.441-44.156,4.408-49.854c-5.535-4.341-11.217-1.314-18.688,3.257c-10.041,20.143-18.499-0.496-31.736,7.049
		c12.523-21.301,18.442-9.541,29.767-9.473c2.322-0.975,30.124-22.978,31.474,26.424c18.152-25.85,59.279-18.488,69.668-36.629
		c-13.449,8.017-15.286-5.816-28.469,0.485c11.183-19.764,14.795-10.686,30.413-9.17c1.53-8.298-4.528-21.39,8.695-27.005
		c-19.69-7.173-3.687-33.348-3.06-38.371c0.631-3.575-0.606-7.12-2.116-10.311c26.313,16.23,17.668,22.669,12.886,42.603
		c17.104-1.933,13.321,10.38,27.833,8.539c-19.181,21.648-25.084-3.993-37.503,1.222c-6.733,2.983-0.96,18.368-5.948,32.817
		c44.892-22.94,79.643-1.242,93.36,4.524c-4.881-19.049,16.588-14.502,22.753-29.974c2.967,12.181,5.944,18.774-5.322,26.202
		c17.801-1.954,49.549,1.166,62.614,22.859c7.253,11.189,9.71,10.228,22.965,11.508c-4.447-14.301,15.047-11.756,19.915-22.142
		c1.889,13.871,2.277,15.241-9.17,21.491c12.005,6.546,2.173,15.274,13.295,24.323c-18.448-2.124-16.204-1.004-21.425-20.425
		c-4.954-1.136-13.933,0.125-20.203-3.959c-6.926-4.215-7.776-15.008-23.344-23.617c-12.859-6.93-41.741-11.207-53.479-3.964
		c26.843,3.173,27.41,0.247,33.549,26.338c-14.407-15.666-38.853,7.401-41.431-25.076c-80.387-36.737-79.588-0.093-136.539,11.796
		c-14.37,2.758-25.355,12.226-28.666,20.314c11.434-8.854,17.267,8.519,29.459,6.201c-17.729,15.602-16.396,5.903-32.17-0.677
		c-5.294,18.237-25.796,20.744-44.587,18.355c21.82,20.332,16.229,47.681,18.421,64.523c32.733-17.967,46.382,26.787,66.108,33.943
		c-10.078-55.701,49.997-47.82,23.99-68.042c-3.348,1.969-7.519,2.888-11.22,1.353c-13.97-6.529-5.922-17.753-21.087-23.475
		c27.205-5.783,20.874,2.026,33.67,19.077c27.018,30.238-29.534,15.69-23.364,65.184c0.242,2.287,0.752,4.539,0.924,6.842
		c22.228,7.11,61.465-5.13,67.926-13.831c15.804-23.74-5.145-88.757-56.433-94.754c-12.705-1.335-20.252-1.827-31.327,8.019
		c-2.197,2.191-4.61,4.302-6.07,7.079c-6.69,20.253-18.991,1.555-31.771,7.615c10.535-18.243,12.144-11.777,29.252-9.316
		c11.994-18.252,29.541-18.617,49.955-14.381c-3.203-7.864,2.935-13.322,7.241-14.573c8.257-2.601,9.346-2.926,12.427-8.746
		c1.551,18.348,2.512,14.585-15.966,24.435c24.899,6.904,41.126,31.484,48.198,55.923c-0.317-28.063,8.978-51.533,36.033-44.481
		c24.109-12.368,19.442,17.422,36.568,18.936c-27.342,9.979-22.606-0.078-37.907-16.068c-39.242-16.083-28.19,64.69-36.735,80.524
		c14.874-7.639,28.501-23.359,47.359-30.625c11.455-5.284,18.708-24.465,62.599-36.447c-7.435-6.104-1.522-10.705-10.887-15.876
		c10.582-1.439,11.064-0.647,14.906,2.691c-5.172-23.674-48.184-30.514-61.23-30.1c-15.728,0.463-20.034,8.766-53.338,1.889
		c-16.794,11.476-15.881-10.362-29.989-13.952c9.682-3.85,14.368-6.64,21.657,0.752c5.469,5.94,6.764,9.983,9.746,10.493
		c12.048,2.631,24.844,4.045,36.836,0.364c-14.776-8.125-17.121-4.074-15.143-22.591c5.293,10.283,24.434,6.256,18.86,21.768
		c17.874-4.062,65.505,0.889,75.465,30.65c5.74-6.78,7.697-8.087,6.741-14.588c12.821,13.181,5.95,16.29,0.167,26.813
		c21.999-0.606,31.482,5.75,41.825,11.917c15.589,4.128,46.999,5.278,57.726-7.398c-4.465-17.343,12.364-10.469,19.723-22.834
		c3.229,19.023-2.084,16.664-16.118,24.298c-2.624,0.992-13.211,16.814-55.681,10.19c11.886,10.144,22.829,21.89,37.129,28.722
		c20.518-14.392,21.419,15.436,36.861,18.446c-27.563,12.068-22.74-4.562-43.032-18.315c-25.92-13.975-35.68-42.5-75.657-42.138
		c-4.244,27.703,10.236,59.998,23.965,85.589c0.692-3.691,0.394-7.448,0.439-11.175c-0.387-10.389,4.989-19.452,5.332-20.688
		c-5.557-18.655,11.568-10.995,19.335-23.854c3.756,25.366-12.894,18.611-16.507,25.162c-8.108,12.614-2.903,18.085-6.776,34.018
		c3.419,6.741,7.18,13.401,11.856,19.38c1.483-9.888,7.268-7.733,5.327-17.466c2.782,2.808,6.675,5.297,7.281,9.518
		c40.615-49.661,73.373,13.634,49.172,15.083c-7.881,0.519-19.706-6.367-20.673-7.367c-6.512-6.389,1.655-11.027-3.1-20.461
		c13.608,4.825,10.605,7.813,9.867,20.516c3.613,2.479,12.736,6.389,16.724,2.828c12.277-11.524-19.623-46.344-50.45-7.902
		c7.114-0.124,11.019,1.082,15.552-4.206c-3.75,19.644-6.546,13.976-22.637,17.481c5.26,10.094,34.354,25.17,44.597,30.12
		c17.889-13.478,21.538,14.249,36.417,18.926c-34.054,10.391-20.148-5.336-42.81-19.027c-25.453-12.581-28.497-17.373-34.428-21.738
		c2.156,5.383,5.206,10.402,6.771,16.022c10.189,31.383-38.816,46.538-59.872,28.595c-34.576-29.657,4.277-74.247,22.91-41.588
		c6.566,12.821,21.946,8.199,11.124,32.488c-1.532-8.026-4.235-8.166-10.579-12.846c-4.681-3.711-6.489-11.634-1.858-16.108
		c-11.517-25.741-41.822-5.818-29.585,22.253c14.97,32.845,60.402,21.947,65.578,0.54c6.334-26.347-64.492-90.968-55.858-153.944
		c-34.746,2.058-61.426,25.421-66.058,31.403c8.498-2.267,17.163-4.045,25.959-4.656c3.153-0.345,9.022-8.296,20.097,0.656
		c5.798,4.87,5.401,15.742,17.84,17.82c-24.934,11.09-23.87-1.043-37.457-15.633c-10.654,0.702-21.263,2.797-31.302,6.453
		c2.812,11.148,13.912,18.933-4.307,31.352c4.163-13.521-10.172-14.27-3.555-27.979c-10.732,4.623-68.168,56.951-117.35,42.936
		c19.858,14.294,32.277,7.628,45.36,5.979c25.285-3.605,47.541,6.63,47.541,6.63c15.958-0.924,18.915-1.667,23.803,14.245
		c-9.854-7.263-22.207,3.496-27.076-7.408c-0.848-1.611-0.601-3.545-1.348-5.161c-12.884-6.895-31.475-6.899-37.134-5.842
		c5.292,8.915,54.009,42.873,99.536,29.469c-2.267-11.138,6.689-16.338,11.882-17.239c10.506-1.395,13.607,0.474,20.39-7.721
		c-1.678,27.3-8.12,20.622-29.151,27.197c-1.813,0.38-17.776,7.189-43.855,2.015c-22.022-4.453-56.017-21.266-62.073-33.564
		c-5.686,0.722-11.255,2.171-16.977,2.621c-18.274,16.253,10.174,57.518,23.202,78.197c12.942-1.918,18.128,9.076,18.103,16.078
		c-0.135,14.016,2.616,15.593,7.095,19.597c-14.262-2.358-21.871-1.611-24.965-17.244c-7.336-37.921-44.769-62.437-27.02-96.329
		c-47.708,1.646-58.825-69.984-94.638-46.289c2.246,13.408,11.604,23.369,24.233,28.924c14.282,6.614,22.035-2.024,23.778,22.496
		c-8.096-10.881-26.515-0.897-24.934-19.784c-12.178-6.089-15.358-10.018-21.198-18.39c-12.182,61.739,47.206,68.351,43.325,151.864
		c1.192-3.706,2.701-7.292,4.378-10.806c-11.889-28.16,15.045-63.167-11.71-78.934c-20.806,2.265-8.598-15.828-20.976-25.313
		c28.398,3.936,14.684,12.807,24.763,25.015c25.594,27.631-0.805,45.939,9.65,75.854c13.344-24.387,18.514-27.735,19.784-53.01
		c-7.453-5.576-4.766-13.322-2.035-16.471c7.132-8.112,6.36-8.689,6.261-13.679c11.34,11.962,7.94,15.583,0.288,26.783
		c-3.194,4.661-1.117,10.441-5.297,25.672c5.326-1.476,7.17,1.5,13.25-3.257c-1.641,10.595-2.69,10.5-13.331,11.856
		c9.324,7.304,14.062,6.671,8.554,21.612c-3.15-10.279-12.572-5.985-14.315-16.648c-6.584,11.558-14.876,22.687-17.335,36.043
		c5.049-3.292,11.058-4.368,16.931-5.115c81.2-9.657,73.593,54.522,121.511,4.842c-16.406-3.741-3.442-17.121-11.311-27.818
		c19.475,5.556,13.743,10.707,14.815,23.899c9.703-10.675,23.332-38.909,25.091-43.517c-12.194-28.835,13.824-17.887,15.411-38.518
		c13.403,26.596-0.829,25.142-13.048,39.785c-1.717,2.984-8.49,21.135-20.476,38.275c11.614,1.352,7.428,8.441,18.941,8.508
		c-12.146,9.871-12.878,5.72-24.475-1.848c-6.769,6.618-23.019,24.144-42.901,22.672c40.756,36.346,88.625,8.552,100.409,3.782
		c0.403-15.303,11.951-5.761,21.935-13.31c-3.726,20.391-13.232,11.335-19.698,15.547c-74.185,43.343-107.345-13.665-136.968-24.95
		c-19.16-7.438-59.658-7.997-66.805,2.136c-0.989,12.178,2.282,9.417,1.106,36.043c-0.909-0.252-1.808-0.49-2.702-0.717
		c0.486-21.306-1.43-21.238-1.353-32.584c-9.145,9.145-33.984,23.134-36.306,24.096c-1.212,0.03-2.388-0.242-3.565-0.384
		c31.302-21.629,48.383-16.282,36.028-71.511c-5.917-25.11-15.781-37.404-27.419-54.999c-22.85-34.935-11.191-59.191-13.634-68.633
		c-7.662-22.646,6.137-48.384-21.905-73.081c-5.07-4.645-16.863-0.077-32.105-28.994c11.469,63.012-15.587,73.38,14.184,109.14
		c30.635-7,14.317,27.525,30.691,37.695c-11.477-1.524-20.795-1.16-25.051-9.609c-5.48-10.114-2.812-19.582-8.534-27.293
		c-29.52-35.554-6.539-51.136-10.629-87.139c-2.995-25.226-8.126-42.365-8.332-43.365c-7.44-30.817,18.171-81.185,54.954-94.128
		c1.459-0.439,1.166-2.348,1.636-3.52C905.201,51.973,918.464,49.394,925.866,52.259z"/>
	<path opacity="0.95" enable-background="new    " d="M708.919,84.753c18.803,12.535,7.74,17.37,5.363,31.484
		c-0.272,17.144-17.361,32.378-31.347,43.88c11.413-0.932,34.876-1.082,46.198-6.039c0.662-0.874,0.535-2.106,0.853-3.126
		c1.424-8.329,11.922-11.117,17.486-9.609c9.267,2.416,12.963,4.984,21.097-0.419c-13.534,30.674-25.509,11.936-39.285,16.229
		c-29.465,10.711-60.945-3.621-87.351,25.227c17.204,23.847,49.592,34.828,77.116,43.355c-3.262-4.731-8.246-7.963-11.508-12.705
		c-4.275-6.184-6.827-13.851-6.827-13.851c-17.211-8.287,1.401-17.533-3.358-30.63c20.81,15.283,4.295,22.58,6.347,29.671
		c3.556,15.849,13.441,17.192,19.128,28.752c7.281,2.292,14.694,4.221,22.258,5.337c-5.101-4.628-0.478-10.472-8.468-16.148
		c3.923,0.106,8.125-0.596,11.73,1.379c-3.672-47.844,34.454-44.251,40.144-40.497c7.243,4.664,9.947,14.247,3.762,18.421
		c-28.538,19.416-23.99-3.366-34.619-4.408c-0.03-0.121-0.086-0.359-0.116-0.475c13.999-5.186,11.146-2.87,21.162,7.539
		c2.409,0.379,4.792-0.672,6.933-1.676c31.758-16.228-41.88-39.842-34.362,22.021c7.913-7.144,7.935-8.021,8.251-13.568
		c11.794,16.306,3.696,15.661-3.828,28.383c18.735,0.669,35.155-4.251,52.833-10.503c5.479-24.676,24.919-2.588,38.952-12.29
		c-11.587,30.444-26.569,11.268-42.047,16.229c-13.447,4.55-27.207,8.776-41.487,9.432c8.68,3.496,29.272,7.632,29.848,26.954
		c0.998,18.159-15.189,40.253-33.902,41.876c-46.798,4.488-51.71-54.631-15.007-45.365c13.432,4.201,23.335-8.862,30.883,15.128
		c-4.539-3.045-5.211-3.707-15.557-1.687c-4.055,0.81-13.203-0.92-13.502-9.953c-25.684-7.284-25.941,15.733-20.314,24.96
		c8.292,13.555,31.306,18.944,45.895,9.135c13.572-9.638,20.732-25.382,18.577-36.074c-5.402-35.325-89.667-14.306-151.041-76.475
		c-16.883,18.975-24.005,42.79-24.788,69.032c12.3-20.975,9.652-11.915,17.512-28.08c2.022-5.165,9.37-9.664,20.632-6.09
		c10.152,2.868,11.94,1.576,17.022-1.338c-9.51,24.714-17.34,16.281-37.387,15.138c-6.978,8.12-13.199,17.037-17.623,26.818
		c15.159,8.682,20.599,1.781,19.229,25.253c-6.272-11.121-21.46-5.933-22.294-18.219c-6.877,19.343-6.768,86.064-52.686,114.195
		c37.704-5.843,24.171-34.916,73.516-55.848c6.308-6.136,12.249-19.119,27.616-7.751c-12.367,1.336-13.078,22.727-28.404,11.22
		c-13.704,4.042-26.798,16.934-30.681,22.198c8.75,2.438,68.066-7.171,91.219-49.561c-3.115-1.974-5.852-4.928-6.342-8.72
		c-1.936-16.584,13.591-14.893,11.543-31.862c7.971,9.098,11.325,13.66,9.71,20.349c-0.732,3.312-16.922,36.669-40.573,51.939
		c-18.724,12.621-54.101,24.309-67.633,20.254c-3.555,4.61-6.645,9.569-10.235,14.154c5.441,26.77,41.527,32.257,67.557,37.629
		c1.389,0.258,2.737,0.828,4.166,0.823c19.897-20.073,23.622,9.961,42.997,7.493c-9.994,7.816-15.454,11.91-23.278,8.983
		c-8.145-3.02-17.82-12.977-22.233-14.058c-18.032-4.761-61.194-6.694-71.501-38.316c-16.887,16.237-28.76,13.341-40.502,15.487
		c-23.971-3.335-55.068-6.019-59.17,18.663c24.128,16.921,48.04-3.467,52.495-5.019c7.156-2.581,11.393,1.5,17.805,7.443
		c-11.201-2.841-22.298,18.556-31.529,3.651c-3.342,0.648-13.526,5.534-28.141,1.656c27.494,42.365,65.586,25.885,110.099,52.939
		c15.279,9.257,24.919,20.825,27.338,22.95c-1.384-3.257-2.681-6.544-3.979-9.836c-20.783-7.18-23.667-24.572-36.144-37.169
		c-10.876-11.425-27.529-11.19-28.348-9.488c-9.626,14.456-19.631-5.251-31.751-3.878c16.801-16.953,21.548-2.956,31.519,0.227
		c42.161,0.579,34.256,32.879,63.659,46.885c-9.237-31.18-5.876-30.101-23.425-51.495c-18.975,1.165-8.416-15.163-18.693-24.374
		c22.168,2.728,14.434,5.947,20.137,21.42c2.959,4.065,6.696,7.534,9.508,11.725c1.727,2.298,2.636,5.115,4.484,7.327
		c2.154-4.902,6.479-4.058,6.6-11.821c6.952,10.185,5.194,9.44-0.727,18.274c16.396-2.905,15.082-1.799,21.339,9.23
		c-11.134-5.228-9.884,4-21.91-1.262c2.848,10.879,6.053,27.84,13.114,37.568c2.505-11.486,14.629-23.941,23.46-32.221
		c42.776-38.741,74.967-3.173,73.809-65.77c-15.213,7.684-14.196-10.343-27.06-12.008c15.604-10.058,18.384-1.884,26.873,6.155
		c-0.198-13.067-7.934-35.271-12.694-48.596c-23.033-0.031-7.381-25.957-16.259-37.785c32.269,12.001,13.277,21.07,20.365,41.699
		c3.71,9.238,9.746,27.467,10.846,37.326c8.24-7.399,12.049,0.64,19.491-7.524c-1.622,17.285-7.264,13.056-18.729,16.083
		c0.921,34.51-10.597,42.193-13.77,46.329c55.849-5.525,67.449-54.964,73.329-68.426c-11.421-9.943,7.543-15.989,5.969-25.035
		c8.909,12.591,5.584,12.647-2.156,23.278c-35.306,113.652-96.685,37.036-155.696,115.957
		c-16.122,21.684,10.729,18.161,22.157,40.088c-0.833,0.359-1.656,0.727-2.474,1.101c-17.381-17.944-15.717-13.606-24.985-22.738
		c0.504,9.327-7.557,38.812-9.13,44.34c-0.712,0.828-1.732,1.288-2.661,1.813c1.052-6.339,5.932-27.029,7.786-33.069
		c7.196-28.135-42.972-54.902-80.848-62.326c-9.522-1.981-42.23-4.991-63.169-36.69c-3.858-5.541-5.966-3.103-15.017-10.776
		c-12.887-10.92-23.849-26.263-44.082-29.216c-26.274-3.864-17.862,12.436-54.494,2.843c2.671,2.343,5.817,4.07,8.614,6.261
		c39.027,28.366,31.072,55.703,76.798,59.872c4.843-7.502,10.04-11.644,21.501-7.655c8.484,2.943,10.977,14.492,26.677,12.689
		c-23.932,22.173-29.17,6.757-45.728-1.788c-2.924-0.879-6.054-0.702-9.013-1.444c-41.499-9.504-34.093-23.987-58.372-48.283
		c-33.418-31.089-47.893-23.562-64.088-54.509c-24.379-47.063-5.817-82.059-5.817-82.059c-15.516-25.48,18.469-22.916,23.712-41.699
		c13.865,35.009-17.684,34.126-20.496,43.098c-17.572,34.767,1.693,77.822,12.997,91.906c11.733,15.015,43.365,27.478,62.043,22.006
		c11.89-3.287,58.181-31.955,17.941-61.609c-17.991-12.759-23.425-8.735-27.585,8.205c5.915,21.337-9.589,11.962-17.587,27.318
		c-4.582-20.465-1.235-15.879,14.068-27.04c5.692-7.867,3.063-35.114,41.234-4.262c-6.361-28.868,27.431-51.825,23.48-74.965
		c-4.619,15.529-14.144,6.463-19.91,20.42c-4.464-21.5-0.859-16.035,15.199-27.853c-11.745-13.026-17.957-14.158-13.28-25.106
		c-4.11,1.57-8.948,1.777-12.881-0.414c-15.944-8.883-8.126-25.644-25.086-30.459c27.771-6.901,27.877,0.619,39.361,21.072
		c7.922-12.983,17.017-2.178,25.818-14.144c-0.234,31.224-20.945,14.648-25.667,28.025c-2.725,6.904,14.842,15.872,18.885,27.141
		c12.829-41.773,44.753-54.165,69.461-62.786c-18.027-9.339,2.739-23.485-5.549-37.331c15.172,8.455,16.051,10.439,15.113,21.986
		c8.035-9.392,21.265-20.352,33.882-25.758c28.141-10.938,30.124,10.15,50.561-10.139c-3.242-1.631-5.151-5.1-5.186-8.68
		c-0.881-7.918,7.284-9.551,4.04-20.94c10.374,7.548,12.423,9.459,8.508,21.415c16.632-2.011,12.179,9.953,26.545,7.882
		c-13.686,12.886-14.436,9.288-29.61,0.783c-3.141,2.136-5.655,5.044-8.791,7.196c-11.393,8.053-16.011,3.35-23.455,2.681
		c-25.812-3.67-54.876,22.467-58.67,36.538c15.434-12.704,19.958-21.803,42.264-5.231c-18.514-2.358-25.008,34.235-46.713,11.599
		c-9.801,3.429-19.744,6.65-28.949,11.523c-38.447,20.175-42.934,61.16-44.213,64.427c-9.106,23.935-30.275,42.86-20.991,63.806
		c0.516-14.542,17.132-6.232,25-16.487c-0.126,21.47-8.129,16.575-23.142,21.935c9.43,17.311-3.297,31.639-17.976,44.441
		c33.683,0.76,39.818,19.34,58.18,32.751c9.27-35.807,52.79-13.631,70.602-22.698c-46.202-32.348,1.704-68.012-31.049-65.149
		c-3.221,11.678-14.807,11.194-20.026,8.715c-10.489-4.716-12.707-4.048-18.224-1.636c11.694-21.24,17.583-14.277,35.003-10.468
		c4.668,1.388,15.207-2.952,18.436,9.19c4.585,17.753-20.146,23.441,18.683,57.933c22.123-12.11,36.882-45.556,39.058-54.277
		c-8.858-41.635-84.698-63.542-116.83-22.056c-14.007,17.231-4.339,33.148-4.358,34.736c1.453,13.253-16.423,9.73-19.375,21.678
		c-5.358-21.59,1.529-18.082,14.048-27.282c-4.337-24.169,9.604-35.318,25.051-45.486c-15.244-8.52,1.213-17.687-2.399-30.231
		c15.196,10.906,10.78,11.841,6.09,28.07c15.446-7.132,36.591-12.246,71.304,3.883c-19.407-20.922-26.349-38.299-3.868-54.994
		c11.31-26.346,23.79-1.417,39.24-12.366c-12.417,27.095-17.099,15.093-38.311,15.325c-32.379,15.972,8.079,52.205,19.183,63.386
		c9.928,9.608,11.138,18.108,12.083,19.91c4.943-18.133,4.474-37.493,11.528-55.095c3.967-11.141-2.093-37.333,18.739-70.345
		c-11.785-0.644-8.229-5.98-18.809-3.883c6.641-9.024,8.297-8.226,12.75-8.165c-19.801-12.633-52.659,9.482-63.644,20.344
		c-11.155,10.699-11.106,24.541-37.77,40.487c-1.546,10.749-10.842,11.475-15.209,10.291c-7.743-1.744-9.441-2.924-15.85,1.141
		c6.521-19.368,13.331-14.514,27.368-13.624c2.73,0.407,21.502-12.171,28.954-26.5c-14.15,4.386-16.002,9.219-26.565-5.302
		c10.486,3.336,22.86-12.43,28.686,1.959c7.562-12.022,45.488-46.461,75.147-31.569c-1.266-12.592-0.972-10.362-5.297-15.138
		c18.381,1.618,14.676,4.765,18.744,18.981c8.877-9.922,20.698-17.289,33.736-20.238c17.329-4.834,48.198-39.36,37.2-48.692
		C698.314,106.53,713.068,95.565,708.919,84.753z"/>
	<path opacity="0.95" enable-background="new    " d="M836.722,254.366c-2.924,15.16,15.938,18.272-0.268,31.751
		c-3.543,9.219,7.595,45.243,7.781,46.243c9.02,39.838-31.663,68.911-14.33,123.309c0.948-2.03-0.832-17.862,13.3-36.094
		c-6.689-8.351-8.65-7.362-2.792-17.153c1.142,7.692,3.621,3.984,7.393,11.77c19.068-20.842,26.216-20.491,38.482-26.818
		c4.74-26.42,24.337-4.288,39.366-13.75c-20.729,41.505-27.627-10.08-74.581,41.244c-4.913,5.514-9.882,11.175-13.068,17.906
		c13.871-5.173,12.475,7.239,26.646,4.504c-13.429,16.051-15.32,7.927-29.403,3.514c-5.532,23.96,0.857,28.787,3.449,33.261
		c-1.146-0.01-2.287,0.005-3.414,0.04c-7.625-10.579-10.155-23.692-12.094-36.311c-13.56-6.058-25.447-3.064-38.114,6.453
		c9.103,7.698,11.03,5.552,7.423,17.628c-0.778-0.005-0.641-1.106-0.985-1.576c-2.122-5.498-10.577-3.743-10.084-13.371
		c-15.186,12.16-24.74,25.357-41.855,34.195c-10.487,5.469-23.154,2.253-47.253,14.891c-0.263,18.837-15.991,6.011-26.419,15.113
		c2.157-11.007,3.855-15.285,13.275-16.194c24.643-3.595,12.966-4.999,36.957-10.907c15.875-3.631,22.053-1.261,45.471-23.076
		c-24.107-3.486-32.878,4.643-42.744-0.02c-3.489,10.399-11.708,3.163-19.653,9.372c1.758-9.053,1.516-12.02,13.316-12.816
		c-4.774-7.113,0.511-6.661-5.206-13.053c13.509,2.102,8.24,4.266,11.755,13.018c6.383,5.764,16.069-1.581,38.911,0.49
		c2.272,0.106,4.575,0.222,6.847-0.015c18.401-17.032,33.935-30.694,56.736-23.98c-4.871-9.795-17.586-20.48-15.174-31.448
		c0.907-10.881-16.228-9.668-1.121-28.378c-1.179,10.891,12.856,13.646,7.398,23.526c-0.968,1.802-6.524,4.504-2.156,14.31
		c2.984,6.665,7.993,12.094,12.154,18.017c0.634-23.661,1.85-16.658,18.027-71.208c-4.161,3.671-8.827,3.202-13.376,0.101
		c-5.09-3.952-4.468-9.633-14.346-11.609c19.507-8.447,14.701-3.655,28.605,7.822c5.019-24.599-6.213-38.988-27.565-52.005
		c-9.418,5.663-10.687-7.166-18.804-9.079c13.024-7.269,11.729,0.69,24.288,9.029c4.555,2.929,8.928,6.17,12.917,9.836
		c1.732,1.454,3.035,3.338,4.716,4.858c-5.628-28.019-3.977-27.007-3.615-32.751C829.954,274.125,819.45,266.991,836.722,254.366z"
		/>
	<path opacity="0.95" enable-background="new    " d="M1442.562,332.375c25.789-17.193,24.794,21.164,42.522,23.389
		c-32.058,9.996-26.321-1.333-42.113-19.814c-33.762-18.25-77.222-0.207-92.764,11.972c-21.858,16.29-41.278,73.092,5.413,94.607
		c23.379,10.443,46.723-27.084,39.477-35.417c-3.585-3.979-9.074-5.297-14.078-6.473c-21.966,6.352-12.111-11.668-27.272-17.608
		c16.566-3.309,15.413-4.675,26.262,12.886c2.849,4.274,39.852,6.342,5.009,42.466c29.538-6.239,54.159,28.697,75.349,23.404
		c-15.179-3.092-7.064-14.557-20.451-19.723c19.906-6.849,19.534,3.889,27.575,15.048c11.823-10.493,14.512-18.298,25.182-13.189
		c-1.646-3.974-1.843-8.589,0.121-12.487c9.102-17.231,22.479-6.288,30.852-25.48c5.075,28.274,2.363,25.965-21.152,39.295
		c13.132,8.902,2.077,17.125,14.093,25.919c-31.105-2.119-15.781-20.045-26.525-25.258c-8.603-3.807-11.96,9.007-28.404,18.537
		c47.237,13.285,58.133,57.573,62.594,69.067c10.493-17.754,22.846,2.689,37.22-5.246c-7.836,16.44-12.927,15.833-21.991,15.048
		c15.638,13.042,31.227,34.129,28.585,56.383c-1.979,13.682-5.386,14.141,7.367,28.111c7.748-12.871,17.052,1.586,29.524-1.126
		c-7.093,11.637-11.345,11.763-21.39,8.367c3.271,14.559-9.959,12.863-7.756,26.656c-11.896-12.859-10.42-13.772-0.828-29.56
		c-3.084-4.83-11.306-10.871-11.932-20.612c0.027-5.778,6.703-19.083-2.161-36.897c-4.508-9.44-18.857-29.524-32.135-33.483
		c12.791,18.31,21.784,16.446,4.958,42.577c0.593-19.373-33.362-26.653-11.543-47.006c-26.755-78.032-55.954-59.503-99.086-84.943
		c-3.902-2.272-22.142-16.436-40.603-9.281c5.262,0.268,9.281,4.954,10.225,9.882c1.077,8.129,0.055,9.959,6.221,15.25
		c-22.918-1.675-15.466-6.665-21.991-23.167c-20.805,11.621-38.346-11.956-44.612-18.37c1.268,30.931-19.995,41.83-32.574,58.519
		c35.447,8.914,14.877,54.679,22.733,70.602c33.82-48.325,65.361,3.634,65.3-31.06c-22.932-7.944,0.226-24.245-7.362-38.391
		c21.997,12.827,14.201,16.999,10.442,35.998c-0.726,3.741,3.826,23.312-21.839,16.345c-23.361-6.191-28.536,2.424-45.168,19.885
		c11.892,21.461,42.834,35.838,54.373,39.088c59.63-11.318,59.354-138.182-10.937-121.461
		c-11.713,3.496-13.625-12.371-18.532-16.668c-1.278-1.333-3.181-1.611-4.676-2.58c18.948-4.646,16.171-1.284,26.974,14.245
		c21.352-4.148,34.17,6.783,45.466,24.97c9.281-14.915,16.88,0.919,30.206-2.257c-10.8,15.937-14.111,9.832-27.959,6.024
		c10.978,23.9,7.481,47.729-3.964,71.299c28.518-26.095,46.517-20.196,55.171-3.651c22.624,2.722,3.893,26.615,12.437,39.073
		c-11.693-5.62-18.819-7.816-17.749-20.758c0.588-9.638,4.059-15.067,0.707-20.243c-22.996-33.243-59.195,28.306-81.853,33.731
		c18.256,5.405,39.53,4.265,58.706,13.174c0,0,35.546-2.668,67.037,17.35c0.22-11.695,6.348-9.456,3.58-18.986
		c8.33,6.122,8.627,7.823,8.211,13.28c1.621-3.484,3.742-6.842,4.267-10.725c2.298-13.443-12.025-40.983-25.066-53.944
		c-11.906-11.869-19.226-7.489-37.841-33.862c-1.101-1.379-1.636-3.721-3.747-3.701c-4.56-0.283-7.928-4.232-8.685-8.524
		c-2.224-7.971,5.045-10.916-0.98-22.122c16.021,5.945,15.644,9.299,13.619,25.505c-0.349,8.094,15.49,25.066,26.399,30.797
		c-5.261-15.916-8.444-15.557,5.115-26.464c-3.638,12.416,13.171,19.032-1.636,28.676c12.294,7.609,46.498,46.12,31.292,75.061
		c8.546-1.009,10.476,0.171,15.3-5.797c-2.031,19.152-4.006,14.586-18.961,19.218c12.838,11.939,17.969,23.123,21.092,37.826
		c7.635,13.282,29.083,36.917,46.249,35.619c7.421-14.801,19.081,2.269,30.055-2.181c-12.073,18.348-18.637,7.616-31.499,5.085
		c-16.249,0.631-35.528-20.019-43.784-31.438c1.278,15.633,0.656,31.787,6.085,46.738c24.888,3.336,3.462,26.02,13.053,39.154
		c-27.832-13.68-14.994-18.603-15.568-37.301c-11.627-36.409,2.256-61.199-24.334-87.988c-3.895-3.116-27.17,16.058-44.723,75.5
		c6.241-3.351,8.214-11.384,23.021-16.709c1.091-0.429,2.287-0.641,3.318-1.257c9.846-17.038,16.249,0.645,30.555-3.282
		c-5.034,7.124-8.045,10.452-12.725,10.478c-4.19,0.009-15.944-4.515-16.426-4.373c-14.752,3.168-16.587,11.313-25.641,17.335
		c-1.368,1.005-3.58,1.267-3.893,3.227c-2.05,6.681-3.883,13.472-4.757,20.415c9.5-5.257,10.838-0.462,16.088-8.322
		c0.01,4.009,0.384,8.251-1.363,12.003c68.716-6.463,37.393,77.727,17.996,36.786c-10.265-20.689,4.252-16.185,8.71-27.777
		c5.52,14.713,1.888,12.515-7.549,21.476c-0.107,14.155,17.302,19.372,20.188,4.302c1.722-7.239-2.789-19.637-8.725-25.298
		c-7.688-7.859-19.643-7.138-31.953-6.63c4.175,3.987,7.414,9.356,14.139,8.079c-15.737,12.864-18.258,2.519-28.504-3.434
		c-1.2,21.907,6.487,40.279,10.321,52.737c25.16,5.095,2.054,25.46,12.674,39.219c-31.804-15.865-10.926-25.139-16.734-42.764
		c-4.459-13.331-8.7-26.954-9.251-41.103c-3.828,9.366-7.929,30.537-29.196,29.979c-47.354-1.313-50.738-64.46-17.441-72.476
		c12.013-3.183,22.86,3.465,24.031,12.866c1.092,6.123-1.944,12.473-1.767,15.648c0.753,15.101,3.641,20.63-14.371,25.879
		c7.336-10.738-4.124-22.208,7.302-28.1c1.384-0.848,3.408-0.49,4.58-1.525c2.851-9.388,2.355-18.334-6.999-21.43
		c-30.583-11.349-51.588,48.922-4.605,64.8c52.968,17.594,26.924-99.596,89.967-149.657c-20.168-18.083-48.865-25.411-68.84-24.737
		c7.554,4.444,14.931,9.261,21.561,15.022c0.967,1.018,18.508,3.787,13.174,20.471c-3.891,13.094-2.491,14.036,0.535,19.602
		c-17.809-8.487-19.584-9.043-15.699-32.246c0.232-1.818,0.707-3.732,0.207-5.519c-7.938-6.842-16.744-12.71-26.177-17.294
		c-8.361,10.456-0.002,21.278-25.227,19.279c11.69-8.463,4.716-19.411,17.032-22.248c0.197-0.707-0.737-0.606-1.111-0.813
		c-22.766-7.251-81.556-5.15-112.266-51.924c6.57,37.194,38.268,29.591,54.141,68.623c8.677,17.963,19.976,10.528,9.564,32.554
		c-1.642-11.206-22.964-15.42-11.18-28.388c-3.843-12.341-12.568-22.561-22.268-30.807c-2.813,11.586,9.281,69.63,49.531,91.199
		c15.945-19.834,23.312,8.58,40.502,5.287c-21.52,19.256-21.886,7.32-47.082-5.549c-28.641-14.773-50.542-74.199-45.486-92.886
		c-4.363-3.863-9.614-6.706-14.118-10.458c-31.817,13.718-31.821,44.773-38.477,71.865c20.151,15.777-9.808,27.152-7.473,42.789
		c-18.109-22.015-7.964-23.187,3.565-42.189c6.573-8.286,2.71-60.876,39.927-74.702c-16.416-17.082-13.246-28.463-15.578-40.911
		c0.028-0.086,1.616-15.949,2.212-20.531c2.157-24.746-9.353-36.494-20.9-38.109c-9.59,15.067-7.571,33.079,0.611,44.325
		c8.558,12.945,6.409,15.325-2.752,25.697c0.995-12.722-18.046-21.283-3.716-31.489c-3.474-8.847-4.105-18.739-1.788-27.949
		c-52.142,34.139-17.612,89.573-76.768,137.907c3.378-1.565,6.817-2.984,10.306-4.277c17.744-34.021,48.544-27.189,47.975-63.831
		c-16.025-17.446,6.494-18.547,2.914-32.892c18.309,20.194-0.361,23.791-0.146,32.872c-1.852,41.839-32.216,32.687-46.9,62.619
		c29.814-9.053,28.221-4.758,51.449-23.384c-1.75-19.125,15.704-8.054,24.278-18.577c-0.762,21.797-10.777,15.865-21.395,20.031
		c-4.019,2.873-16.785,12.073-19.223,13.694c5.169,2.379,4.999,7.122,11.982,6.913c-9.917,6.624-9.167,5.367-18.027-0.773
		c1.955,15.103,3.573,14.426-9.367,21.319c5.291-10.753-4.206-11.013,1.439-21.981c-12.78,3.434-26.409,5.549-37.599,13.083
		c11.137,3.386,20.337,11.316,28.878,20.152c45.761,46.055,1.797,74.942,69.017,77.318c-7.68-15.93,9.94-13.646,12.119-27.51
		c8.323,17.894,4.985,13.954-6.282,27.288c13.678-0.621,35.309-7.947,48.455-12.689c2.781-26.351,24.486-4.688,37.967-16.557
		c-9.579,26.298-13.202,18.074-34.882,18.865c-0.014-0.001-30.745,10.451-44.006,12.588c6.795,10.207-0.47,11.481,7.312,19.536
		c-15.367-2.283-12.978-3.424-15.916-18.658c-18.943,0.151-34.142-1.839-46.38-13.942c2.659,52.778,53.909,67.198,68.3,73.344
		c8.26-10.181,15.843,5.176,24.798,6.004c-12.419,11.416-17.554,1.03-23.415-2.358c-7.161-1.725-26.866-11.006-27.868-11.528
		c-73.865-34.823-13.048-90.799-89.204-145.062c-3.494-2.59-7.67-4.166-12.013-4.449c-6.333,5.851-17.841,21.952-23.717,25.187
		c-0.364-0.838-0.737-1.671-1.086-2.494c11.861-11.711,12.722-15.361,20.158-22.713c-5.775,1.45-9.654-0.393-35.998-6.519
		c-3.704-1.065-3.145-0.611-5.433-4.035c10.372,2.146,20.668,4.666,30.863,7.529c17.991,4.995,49.775-33.36,58.397-75.96
		c3.3-14.954,5.376-48.931,40.447-70.536c14.258-26.668,38.79-35.326,37.922-65.098c-0.497-15.305-11.85-17.773-3.105-47.44
		c-37.408,54.139-62.415,38.321-66.325,85.816c1.146,1.454,3.04,2.131,4.358,3.454c7.311,6.072,4.821,17.837,0.768,22.627
		c-5.557,6.531-12.24,11.628-10.346,22.193c-14.502-15.902-13.82-22.201-5.287-34.816c15.813-23.838,4.875-37.741,29.363-56.963
		c62.337-45.424,44.248-63.407,78.363-83.221C1383.44,325.139,1414.327,319.689,1442.562,332.375z"/>
	<path opacity="0.95" enable-background="new    " d="M395.572,400.781c11.754,27.3-5.199,25.589-16.663,38.285
		c-15.735,30.239-13.78,25.399-24,38.73c9.65-3.881,15.281-8.783,27.318-7.807c27.684,3.156,39.674,62.368-2.974,73.374
		c-26.921,6.616-46.052-21.273-21.026-35.599c9.906-5.025,11.365-23.265,32.16-10.705c-13.258,0.153-11.949,23.089-29.267,12.24
		c-23.269,13.567-5.855,31.921,6.978,32.519c50.27,3.2,42.567-73.808,9.069-68.875c-29.62,3.549-83.495,62.895-146.92,56.251
		c2.18,34.017,24.472,60.546,31.433,65.921c-2.257-8.357-3.959-16.885-4.62-25.525c0.044-1.047-9.894-14.934,3.696-22.985
		c6.619-3.92,13.481-5.981,14.82-15.34c9.913,28.723-0.352,22.107-15.8,37.796c6.161,64.742,12.802,2.93,37.75,35.084
		c-13.314-3.509-13.494,9.828-27.878,3.802c9.264,20.749,55.296,62.636,42.901,117.658c21.378-31.106-6.245-56.115,12.346-91.128
		c2.045-10.057-7.111-19.454,14.169-25.677c-5.605,10.551-0.4,11.417-1.616,18.885c-2.017,9.738-8.85,8.411-10.523,9.251
		c-6.977,13.296-6.848,31.597-5.883,37.28c7.97-4.659,43.2-53.24,29.454-99.566c-25.066,2.881-10.633-21.742-24.924-32.307
		c10.31,0.404,17.003,1.559,20.279,6.07c1.879,2.512,20.008,40.781,4.019,84.372c-12.315,33.511-28.484,45.365-28.484,45.365
		c0.687,5.534,2.055,10.973,2.54,16.547c29.687,14.843,59.57-12.452,78.171-23.526c-2.312-26.401,24.675-11.358,35.599-25.202
		c-4.558,32.772-13.965,20.829-35.139,28.308c-25.038,14.517-48.149,37.651-78.358,23.824c0.729,47.699-69.378,59.325-46.395,94.289
		c2.477,0.338,19.081-3.285,28.02-21.96c8.104-14.613-2.107-24.265,23.253-25.702c-10.455,7.621-1.007,27.115-19.582,24.838
		c-3.226,6.083-6.919,14.203-18.375,20.981c48.793,17.6,73.129-47.661,150.879-43.229c-3.227-1.581-6.68-2.626-9.841-4.353
		c-32.233,14.684-46.939-16.966-78.919,11.493c3.241,19.413-16.508,10.444-25.035,20.814c-0.117-20.877,8.361-17.559,21.41-21.592
		c2.383-1.348,8.685-8.942,18.855-12.457c20.864-6.891,38.359,8.945,60.079,0.061c-10.965-7.123-42.693-24.288-52.772-19.688
		c-12.933,14.604-16.479-5.778-30.423-4.12c19.414-16.242,20.01-0.454,32.292,1.348c6.877,0.697,13.74,1.712,20.435,3.479
		c-1.666-6.139,1.704-6.607-3.353-13.341c9.611,2.196,10.577,1.055,11.907,13.295c5.101-5.733,6.41-15.276,21.718-8.448
		c-10.412,2.88-5.27,11.656-16.401,14.325c1,0.733,22.04,14.959,35.69,17.315c-7.39-13.039-14.066-59.276,16.35-94.572
		c3.791-3.814,4.893-23.24-16.709-43.921c-1.072,8.056-9.005,10.127-13.543,9.039c-9.306-1.804-11.196,0.016-14.219,2.494
		c6.258-18.576,6.837-13.794,23.995-14.891c-9.546-8.741-35.382-21.819-43.658-25.222c-22.301,14.019-19.985-11.75-37.932-15.507
		c26.617-13.011,23.364,0.216,39.502,13.321c3.017,1.542,22.84,9.552,37.972,20.304c2.717-12.341,8.869-8.22,8.635-18.88
		c10.296,13.022,5.057,14.085-1.772,24.424c4.12,4.936,23.931,20.996,22.496,43.234c35.896-43.96,9.56-86.517,3.843-100.753
		c-13.653,1.189-6.937-13.991-13.24-21.89c15.299,3.471,12.091,3.565,14.714,18.113c50.909,95.866-26.365,95.288-29.726,169.744
		c-0.112,9.602,0.389,28.665,7.231,35.321c3.817,1.166,7.902,0.237,11.796-0.081c6.786-1.298,21.039-1.109,27.267-0.459
		c-0.288,0.869-0.555,1.757-0.818,2.651c-5.276-0.319-16.667-0.88-34.635,1.389c5.835,6.236,25.871,35.278,25.046,41.754
		c-3.184-3.147-17.221-26.991-19.476-30.802c-5.196-8.055-6.544-9.391-23.465-10.357c-75.585-2.167-83.489,56.898-150.505,42.936
		c-27.742,8.633-51.978-2.819-73.021,19.35c-12.719,13.275,0.447,16.054-32.044,35.675c65.549-11.245,70.149,15.655,108.63-13.81
		c-4.304-30.592,22.996-15.128,37.538-30.388c-0.052,32.197-17.787,25.441-33.756,30.807
		c-53.198,37.088-31.455,0.932-126.727,19.213c-37.781,12.722-88.547-17.608-101.147-53.883
		c-30.617-7.065-3.181-26.773-13.386-46.445c34.694,16.932,11.835,31.269,16.426,46.354c22.934,67.476,136.908,73.956,138.972,1.692
		c0.859-29.262-14.53-36.493-42.476-30.706c-18.927,4.192-12.952,15.229-8.342,23.657c0.5,1.113,13.751,4.244,8.609,16.643
		c-3.962,9.709-3.599,10.593-1.136,15.775c-18.222-9.942-11.713-12.994-9.271-29.393c-0.779-1.961-23.302-30.964,26.313-31.711
		c-25.184-17.044-18.807-60.206-36.967-69.925c8.904,11.904-5.756,16.666,0.969,28.812c-18.152-11.492-12.619-11.282-9.109-30.681
		c-18.5-0.806-23.449,2.635-27.146-8.559c-4.615,11.515-18.123,11.517-24.606,8.246c-15.692-7.419-17.358-5.772-24.076-3.146
		c14.125-23.551,19.597-19.615,42.643-12.659c-3.232-15.309,9.384-12.533,8.443-28.095c21.525,20.122-4.378,25.976,1.308,37.796
		c3.139,6.544,21.366,0.826,32.746,5.827c-18.403-33.823-10.229-61.482,4.524-93.436c-9.817,2.315-15.769-4.284-17.527-8.857
		c-5.62-13.307-8.8-12.143-12.543-13.871c12.562-2.76,18.039-6.25,26.257,5.186c-1.72-16.883,0.982-48.389,21.672-61.715
		c12.388-8.302,11.102-8.79,12.735-23.632c-16.032,3.471-10.16-13.976-22.268-20.132c10.662-1.097,16.022-3.571,21.471,9.443
		c6.346-11.68,14.095-2.633,24.293-13.164c-0.668,20.193-5.069,16.073-20.496,21.284c-1.407,13.885,0.561,19.502-11.543,26.833
		c-27.674,16.965-25.925,61.349-19.708,70.016c2.115-22.332-0.606-28.65,25.924-33.362c-11.09,12.274-2.778,20.561-6.423,29.853
		c-3.441,8.447-8.597,12.615-18.077,11.164c-34.18,70.44-4.459,87.867,4.974,113.215c7.074,18.571,6.76,43.314,26.848,52.192
		c-8.932-12.232,9.046-16.904,6.165-29.54c15.567,17.702,5.741,17.579-0.576,32.241c18.712,5.225,19.92,25.053,18.491,44.304
		c25.878-22.555,42.319-15.148,64.427-18.067c-18.509-32.229,26.958-47.296,33.887-66.073
		c-51.558,8.011-42.132-29.332-59.726-29.772c-3.525,0.258-6.211,2.924-8.2,5.615c5.407,26.137-13.921,14.394-22.248,32.342
		c-4.66-24.868-1.497-19.9,17.936-32.751c1.025-0.648,14.376-18.022,25.197,0.247c6.382,10.6,7.952,16.417,21.304,20.617
		c11.673,3.691,26.726,1.26,26.969,0.02c5.532-20.505-1.72-46.901-10.927-65.017c-23.225-18.01-61.497,0.279-77.894,14.608
		c-18.952,16.191-32.081,56.714-6.66,75.97c2.764,2.478,11.927,1.285,11.24,13.922c-0.973,6.742-6.342,9.857-1.984,18.88
		c-17.435-10.405-12.354-10.878-9.215-29.221c-20.774-13.659-17.567-34.358-14.467-49.849c-15.47,5.024-11.868-12.117-22.894-19.698
		c19.068-3.507,16.977,3.214,24,15.552c8.84-26.268,29.643-39.372,55.984-47.935c-28.322,0.534-51.052-8.533-44.405-36.079
		c-13.717-19.953,17.577-21.679,18.83-36.447c11.08,27.139-2.638,24.377-16.204,38.159c-14.71,40.481,60.11,26.148,80.726,36.563
		c-3.732-7.392-9.099-13.78-14.033-20.385c-13.6-17.804-19.112-31.903-19.112-31.903c-16.16-16.183-28.707-33.443-33.806-57.827
		c-7.615,7.48-11.367,2.381-15.972,10.68c-1.952-10.843,0.228-12.093,2.989-14.714c-21.996,4.502-30.423,43.075-30.555,59.66
		c0.03,18.871,8.637,15.305,2.111,54.989c10.55,19.884-12.633,15.571-13.896,30.378c-11.443-25.642,8.542-22.41,11.281-32.69
		c2.454-11.725,3.822-24.142,0.151-35.771c-6.468,11.186-3.589,17.986-22.258,14.977c10.498-6.561,5.174-23.068,21.339-19.037
		c-3.337-15.662,0.667-67.299,30.852-75.177c-8.89-7.698-9.018-7.227-14.78-6.913c14.334-11.714,12.927-7.62,26.823-0.151
		c-0.352-41.987,16.184-25.338,14.598-70.405c-0.751-10.208-1.881-22.537-10.054-29.065c-16.161,4.757-11.41-12.722-22.864-19.814
		c4.873-0.369,10.235-2.166,14.795,0.384c6.206,4.388,6.862,12.73,11.326,18.426c11.329,11.119,11.043,37.724,8.377,53.277
		c10.008-12.109,22.041-22.945,28.767-37.412c-14.904-19.773,16.099-22.039,18.426-37.048c4.355,11.631,6.014,17.334,1.858,22.96
		c-5.668,7.537-16.288,11.647-17.764,15.588c-13.357,29.812-45.782,39.532-44.365,80.368c33.71,5.043,83.589-22.482,84.938-23.99
		c-7.027-1.689-15.729,2.495-30.408-5.464c-0.757-0.561-1.631-0.066-2.393,0.187c-2.772,1.116-6.155,1.03-8.655-0.712
		c-9.125-6.157-2.588-13.028-13.785-18.991c32.234-4.505,10.461,21.433,40.962,21.38c5.009,0.01,10.109-0.212,15.022,0.919
		c1.384,0.222,2.853,1.338,4.206,0.454c6.347-3.338,12.593-6.933,18.315-11.281c-10.609-2.8-8.541-7.226-17.391-5.539
		c2.777-2.717,5.241-6.125,9.13-7.302c-7.402-7.185-16.072-14.437-17.567-24.106c-2.242-14.507,7.252-28.852,14.866-31.832
		c14.054-5.746,25.391,5.894,13.538,22.107c-1.197,1.53-1.161,3.666-2.419,5.161c-5.812,6.764-11.366-1.182-20.769,3.318
		c5.859-13.516,6.339-10.511,20.45-9.786c13.829-19.717-8.825-29.254-19.693-6.433c-3.554,8.074-10.592,21.627,14.679,40.083
		c-0.009-6.097,1.389-10.556-4.125-15.431c20.974,3.477,13.953,9.872,17.527,22.637c17.359-15.426,29.539-43.72,29.858-44.723
		C363.559,417.469,391.22,416.422,395.572,400.781z"/>
	<path opacity="0.95" enable-background="new    " d="M1205.72,417.571c14.314,5.413,7.443,6.027,10.281,22.097
		c1.692,8.15,3.11,16.547,2.065,24.879c3.166-4.939,13.968-21.303,19.607-25.116c7.294-5.375-0.181-23.279,25.258-20.592
		c-3.69,2.774-5.277,2.379-7.65,13.896c-0.705,3.802-5.655,11.128-13.735,8.604c-4.305-1.544-19.821,22.384-22.506,26.929
		c-32.175,54.348-76.649,34.717-103.172,88.28c9.438-8.168,19.791-14.364,34.791-15.997c2.158-11.278-2.396-10.359,10.286-14.391
		c-4.859,5.745-0.238,7.673-3.171,13.689c28.897-1.792,37.995,5.93,45.996,8.079c1.727-0.5,2.994-2.151,4.737-2.802
		c17.108-8.066,18.126,18.455,32.736,20.89c-21.934,14.049-29.49-6.927-36.2-14.331c-22.563-12.404-54.369-10.39-67.522-5.671
		c13.553,5.331,3.911,14.791,15.961,22.051c-20.752,0.378-14.774-0.923-23.298-18.304c-19.844,11.872-20.017,21.367-20.713,23.278
		c-0.843-0.752-1.833-1.394-2.343-2.409c2.554-11.782,11.042-24.709,16.663-31.489c-2.843-6.942-8.302-18.872-31.625-22.586
		c0.947,12.695,3.754,12.388-7.589,17.921c4.289-6.944-4.582-13.66,3.489-18.703c-34.871-3.248-46.435,1.283-63.649-10.165
		c-9.604-6.296-16.397-12.179-34.271-17.84c-11.729,12.528-17.9-7.228-29.489-8.14c19.882-13.478,18.662,1.23,32.231,6.019
		c35.832,11.21,25.502,24.76,71.021,26.313c-24.823-26.03-27.5-21.593-30.353-30.524c-9.111,5.842-11.591-7.299-20.804-6.938
		c8.075-5.299,9.612-7.546,18.885,0.207c0.836-6.861,6.393-7.271,5.378-12.851c5.632,6.913,5.677,7.257,0.475,15.224
		c-4.889,8.591,9.908,11.941,27.071,31.297c1.126,1.212,2.156,2.58,3.57,3.494c9.135,2.006,43.053-2.922,57.11,23.172
		c3.685-9.723,1.804-25.642,11.028-32.418c8.333-7.344-3.497-19.064,19.597-21.178c-7.726,8.833-1.327,19.443-11.331,21.799
		c-15.946,4.465-12.093,14.642-15.992,30.388c12.649-14.537,25.52-17.084,63.189-38.033c-8.304-1.561-10.094-8.9-9.18-13.295
		c1.727-9.661,0.514-10.182-2.176-14.517c18.759,6.116,13.183,7.492,14.669,25.687c21.236-13.09,23.86-32.227,17.436-56.211
		C1202.32,435.648,1209.524,425.18,1205.72,417.571z"/>
	<path opacity="0.95" enable-background="new    " d="M418.851,439.304c2.716,4.08,3.183,5.638,13.361,7.63
		c4.203,0.756,11.778,5.18,8.867,15.108c1.919,2.838,4.681,4.933,7.256,7.14c34.865,28.431,37.11,11.2,61.15,61.558
		c10.716,20.872,17.041,40.83,46.996,55.686c-4.716-5.891-12.57-13.348-16.148-34.963c-11.616-0.395-11.724-0.634-13.962-9.675
		c6.69,4.141,7.924,0.1,13.401,2.762c0.287-32.691,2.655-29.887,8.332-46.112c-15.077-20.91,13.49-20.804,18.128-37.402
		c7.796,22.205,5.372,20.501-13.684,35.498c-4.939,3.356-15.984,41.081-6.554,68.194c6.05-13.473,15.456-4.107,22.011-15.835
		c2.565,19.737-4.825,16.819-18.198,23.283c12.064,20.3,21.143,20.087,27.086,21.329c-0.646,0.934-1.424,1.762-2.262,2.525
		c-12.706-1.829-26.146-9.788-35.427-17.401c-14.034,5.208-19.97,16.165-22.682,31.524c12.41-0.538,12.376-4.219,17.901,7.539
		c-8.429-3.33-13.341,4.202-18.668-3.535c-4,53.983,0.783,46.16-13.538,68.885c-6.302,8.953-11.442,18.809-14.406,29.378
		c6.624,6.147,3.24,13.917-0.778,17.027c-6.73,5.504-6.958,7.372-7.478,12.159c-11.495-17.936-2.901-16.695,4.959-28.797
		c19.046-48.127,25.258-31.162,27.5-74.162c-22.148,17.366-19.512,26.375-30.337,30.07c5.074,10.631-6.595,10.496-7.165,20.799
		c-5.257-7.886-7.43-9.632,0.192-18.754c-8.463-1.668-4.766-5.169-12.775-5.453c9.326-7.632,8.25-3.762,17.34,0.879
		c6.091,0.214,13.462-12.046,15.022-14.29c2.988-4.364,17.657-17.687,17.87-18.178c1.001-31.093,4.366-45.408,23.021-56.64
		c-12.867-4.548-24.84-0.472-34.155-13.149c-12.089-4.438-17.838,1.642-19.516-17.375c10.416,9.614,19.483-2.427,22.031,15.361
		c4.227,9.809,18.577,9.574,29.686,11.669c-17.72-17.508-30.137-52.963-37.649-62.715c-2.537,15.68-17.568,3.643-27.823,11.392
		c6.492-19.296,8.701-14.217,25.707-14.82c-9.024-16.555-27.976-26.147-55.999-17.577c-5.753,12.266-10.844,1.126-19.966,6.978
		c6.89-16.294,10.383-7.294,19.794-9.942c8.816-2.09,17.895-3.479,26.979-2.722c-14.212-9.87-20.369-13.678-24.283-18.759
		C431.461,454.967,418.01,467.107,418.851,439.304z"/>
	<path opacity="0.95" enable-background="new    " d="M1191.445,665.915c24.209,4.73,12.626,16.946,17.441,25.278
		c18.292,34.311,1.782,38.221,32.665,70.506c2.765-29.206-4.846-32.08-0.066-42.976c-10.66-3.282-2.727-11.473-9.579-19.643
		c9.216,2.006,12.054,1.406,12.982,13.326c7.21-4.649,6.699,0.526,12.962-5.055c-2.382,23.201-19.568-4.75-13.568,30.918
		c1.732,8.832-0.454,17.799,0.303,26.677c19.41,20.958,29.741,34.539,23.824,56.65c11.403-5.825,19.723-17.806,32.736-15.012
		c4.714,1.283,9.278-15.532,27.065-1.308c-13.528-0.447-13.313,16.021-26.772,4.504c-9.69-4.02-20.219,6.87-29.08,12.795
		c26.029,0.294,52.435,14.086,70.764,17.82c-8.237-15.694,10.1-14.4,11.821-27.596c10.507,17.347,0.795,18.632-7.584,28.6
		c24.263,6.353,39.564-7.477,51.939-27.394c-5.318-8.891,6.086-10.431,9.195-18.749c5.553,11.344,1.909,11.622-4.908,18.092
		c-0.34,0.315-9.834,15.973-19.042,23.793c25.686-5.59,33.418-3.787,33.418-3.787c12.999-4.925,16.681-12.798,30.252,3.398
		c-15.293-4.149-16.222,16.337-32.024-0.364c-1.899-0.601-3.918-0.394-5.862-0.374c-46.999,2.979-35.508,19.611-90.831,0.131
		c-23.008-7.761-42.359-16.832-73.122-6.09c13.114,0.268,26.01,4.913,36.286,13.063c6.833-4.496,5.827-9.47,17.214-2.802
		c-6.104,0.231-5.418,4.756-11.644,7.463c20.911,19.542,20.019,25.278,26.818,38.644c25.136,2.991,5.166,26.543,13.502,39.002
		c-31.268-13.07-11.034-28.951-15.946-37.387c-0.496-1.004-13.47-36.789-43.077-50.041c5.493,13.279-7.954,13.66-4.388,26.692
		c-16.773-13.115-6.67-18.993-3.6-29.449c-22.179-5.334-28.582,0.589-30.332,1.434c0.025-1.116,0.025-2.227,0.03-3.323
		c10.038-6.282,21.955-8.428,33.483-10.19c2.571-6.976,7.657-18.91-6.524-38.058c-6.514,6.892-5.321,12.21-18.057,7.079
		c9.321-3.572,4.37-10.376,15.219-10.887c-5.701-7.105-12.164-13.533-18.34-20.208c-29.154-30.886-12.6-36.364-30.746-68.719
		C1188.771,692.416,1199.3,675.735,1191.445,665.915z"/>
	<path opacity="0.95" enable-background="new    " d="M373.991,776.974c30.884,12.667,11.035,29.684,15.704,37.099
		c0.537,1.083,12.187,34.858,43.385,50.52c-6.291-12.632,7.448-13.66,4.226-26.914c15.924,13.85,8.096,15.579,3.469,29.368
		c23.986,5.955,29.431-1.089,35.039-4.641c-0.015,1.146,0.343,2.388-0.086,3.494c-10.872,8.259-23.435,11.084-37.765,13.255
		c-6.726,12.509-2.528,26.903,6.307,38.093c7.897-9.235,5.88-11.195,17.966-7.185c-9.687,3.999-4.017,10.291-15.098,10.907
		c5.969,7.852,13.215,14.618,19.789,21.95c26.549,29.326,11.152,32.358,29.009,66.946c9.886-0.146,12.236,8.201,11.629,12.664
		c-0.949,9.086,0.634,10.481,3.6,14.002c-21.799-5.187-13.68-9.579-17.123-24.278c-20.02-37.341-1.146-37.346-33.332-71.829
		c-0.189,40.577,4.072,31.979,0.263,43.214c10.222,2.358,2.911,11.888,9.574,19.678c-10.766-2.492-11.661-1.706-13.124-13.472
		c-6.946,4.649-7.481-0.358-12.997,5.332c2.431-14.003,4.256-8.246,13.098-11.912c5.094-5.777-0.286-18.046-0.071-26.348
		c-0.187-6.383,0.874-12.74,0.439-19.112c-2.812-6.162-32.513-26.266-24.005-56.933c-13.071,6.471-17.403,16.909-33.473,14.81
		c-10.811,5.375-11.392,13.627-26.333,1.328c12.058,0.301,12.433-11.58,22.814-7.716c8.375,2.937,3.608,11.899,33.019-9.599
		c-20.12,0.196-22.637-3.58-70.996-18.001c10.29,14.601-12.325,16.492-11.326,28.065c-9.909-18.294-2.574-17.07,7.473-28.848
		c-24.26-6.366-39.128,7.327-52.055,27.404c5.624,10.463-6.952,10.034-9.008,19.087c-5.432-12.799-6.04-5.796,23.354-41.982
		c-8.886,1.393-22.212,4.691-29.56,3.727c-10.028-1.518-19.143,16.583-33.514-3.575c11.583,3.692,22.87-15.739,31.681,0.338
		c23.679,4.736,41.855-13.72,71.551-7.408c35.028,7.507,58.172,27.834,98.652,13.709c-16.823-0.222-27.033-6.508-36.568-12.962
		c-6.792,4.888-6.838,9.414-17.214,2.565c6.187,0.363,5.893-5.215,11.836-7.271c-20.176-18.007-21.143-27.373-26.52-37.881
		c-0.353-1.04-1.57-0.869-2.419-1.055c-18.457-1.949-8.32-26.942-8.599-30.908C376.783,781.857,375.253,779.393,373.991,776.974z"/>
	<path opacity="0.95" enable-background="new    " d="M1582.695,851.692c23.427,9.96,44.774,25.854,53.07,49.909
		c0.308,1.373,2,1.177,3.08,1.56c4.171,0.682,8.155,3.141,10.054,7.019c8.184,16.884-9.291,23.613,0.722,38.831
		c-35.244-17.231-11.376-30.379-17.012-47.723c-12.996-35.399-66.145-62.198-95.426-50.217
		c-35.348,7.224-50.061,39.317-40.739,67.148c9.587,24.596,48.268,14.889,52.51,5.58c2.362-4.989-1.516-12.281-4.58-16.623
		c-19.467-8.201-0.749-17.303-6.847-31.58c15.454,8.451,13.45,11.659,9.761,26.475c-1.301,7.202,14.052,20.305-1.353,28.908
		c-7.847,4.474-17.138,5.827-26.061,5.443c25.646,14.939,19.108,60.796,37.392,70.026c-8.319-11.409,5.017-15.482-0.616-28.414
		c19.26,10.024,10.888,16.078,8.963,30.373c22.836,0.393,23.075-0.999,27.096,8.397c5.127-11.071,17.73-11.451,24.43-8.115
		c15.256,7.475,17.737,5.845,24.177,3.222c-13.798,23.388-19.656,19.699-42.653,12.654c3.704,15.021-10.939,14.212-8.14,28.424
		c-16.728-17.457-6.618-18.84-0.167-33.655c-0.223-13.441-19.654-4.276-34.2-10.326c20.534,38.015,6.955,65.001-4.474,93.532
		c20.249-5.415,14.219,18.532,29.843,22.43c-1,0.816-11.43,3.658-16.668,2.651c-4.131-1.005-6.958-4.408-9.432-7.615
		c0.817,5.269,0.902,26.409-5.358,41.85c-12.058,28.151-27.885,13.979-28.863,43.511c16.937-2.686,9.766,13.983,21.965,20.112
		c-14.635,2.144-16.124,0.911-21.314-9.231c-7.754,12.227-17.612,2.481-24.187,13.351c-0.415-19.68,5.748-16.935,20.37-21.617
		c0.813-6.332,0.056-13.154,3.156-18.991c4.179-8.514,17.53-8.836,25.869-27.702c5.283-12.005,9.482-38.371,2.212-50.586
		c-1.892,27.48-1.74,28.318-26.06,33.867c14.54-12.98-5.926-42.144,24.864-41.229c9.531-20.776,29.551-54.209,1.217-100.066
		c-15.019-20.193-7.476-52.896-33.478-65.548c3.338,3.934,3.111,9.872,0.485,14.108c-5.503,7.533-7.095,6.833-6.595,15.401
		c-14.329-15.459-6.881-17.089,0.98-31.933c-18.491-4.477-20.454-25.579-18.557-44.572c-20.655,21.816-47.391,16.174-64.361,18.33
		c15.293,40.092-26.134,43.418-34.109,66.128c50.44-8.434,42.484,28.964,59.574,29.706c3.686-0.005,6.388-2.954,8.483-5.645
		c-5.434-10.151,1.773-17.694,6.898-19.819c8.75-3.64,11.888-4.002,15.255-12.503c1.05,5.176,2.641,10.397,2.106,15.734
		c-1.112,8.654-13.879,12.939-20.148,17.123c-2.964,1.899-8.307,12.124-18.814,6.266c-12.194-6.818-8.94-35.889-54.343-27.853
		c-7.644,26.633,7.515,63.098,13.295,67.426c24.794,17.149,91.854-5.535,95.784-59.922c2.019-31.426-20.086-33.158-22.975-37.654
		c-7.059-10.889,5.151-14.554,0.126-27.323c18.054,8.871,11.099,14.136,9.074,28.979c18.108,12.164,18.826,29.737,14.275,49.995
		c8.06-3.282,13.511,3.06,14.644,7.145c3.058,10.135,4.503,10.252,8.65,12.326c-18.667,3.627-17.386-2.46-24.111-15.386
		c-1.754,2.614-7.305,33.67-56.322,47.859c37.066-0.945,47.815,15.149,45.708,30.484c-0.151,1.858-0.803,3.641-1.03,5.499
		c11.77,23.73-15.304,18.691-19.062,36.447c-7.424-23.069-6.117-19.67,13.876-35.796c5.191-4.558,4.518-14.053,1.348-19.112
		c-9.72-17.421-47.687-13.841-50.894-15.441c-11.881,1.275-18.67,0.693-28.858-4.358c9.039,16.672,24.581,29.576,31.787,50.025
		c0,0,27.746,24.832,35.316,60.089c10.297-8.258,10.257-1.94,16.158-10.735c0.661,11.26,1.208,9.944-2.969,14.78
		c23.854-4.771,31.456-49.53,30.024-64.174c-1.672-15.918-7.991-18.232-1.672-50.445c-11.942-16.234,11.292-16.482,13.856-30.075
		c10.189,19.92-2.022,21.02-10.715,30.156c-3.175,10.703-4.415,25.029-0.833,38.23c4.646-8.361,4.126-19.486,22.44-15.103
		c-10.496,5.993-5.467,23.273-21.415,19.042c3.715,16.654-1.049,65.733-30.883,75.192c6.649,5.324,7.327,7.554,14.603,6.807
		c-12.437,12.56-15.722,6.182-26.601,0.212c-0.146,11.145-0.45,24.055-11.058,39.957c-3.911,5.418-8.283,47.04,6.256,59.327
		c19.761-2.465,9.555,12.782,23.228,19.941c-26.225,2.929-17.095-10.474-27.878-20.557c-9.442-11.35-9.545-37.177-6.701-51.556
		c-10.089,12.038-22.087,22.925-28.828,37.376c14.267,23.02-16.868,20.786-18.406,36.983c-14.12-27.54,10.15-28.057,16.26-39.325
		c13.455-28.875,45.746-39.599,43.895-79.459c-27.834-4.199-59.557,10.193-85.478,23.975c9.627,1.58,16.913-2.249,31.797,5.857
		c9.365-3.898,14.454,2.987,15.578,7.115c2.855,9.55,4.357,9.802,8.251,11.978c-28.928,7.505-11.193-20.572-40.497-21.365
		c-19.281-0.437-19.772-4.401-38.058,10.18c6.881-0.599,7.907,6.954,17.481,5.353c-2.388,3.025-5.307,5.847-8.902,7.352
		c5.659,5.726,31.474,24.441,9.872,50.126c-11.934,14.747-36.496,5.217-20.814-16.254c1.573-1.909,0.972-7.935,9.635-8.281
		c5.926,0.542,7.25,3.392,13.729-0.661c-5.355,15.199-9.336,9.987-20.789,10.255c-23.922,38.512,59.57,14.368,5.145-34.054
		c0.089,8.141-1.124,10.051,4.065,15.654c-19.593-3.008-13.854-8.118-17.355-22.773c-13.652,12.547-22.037,28.084-29.999,44.88
		c14.741,20.963-16.837,19.989-18.804,36.452c-4.567-12.576-7.001-18.388,0.757-25.919c4.541-4.518,14.394-10.029,15.936-12.846
		c11.849-23.03,11.873-23.517,23.854-38.487c-6.496,2.41-26.832,16.147-41.34,0.636c-39.327-44.917,26.865-89.731,47.122-55.701
		c9.808,16.014-9.962,25.328-11.897,26.944c-4.81,4.593-13.877,21.829-29.141,8.766c12.247,0.052,12.939-23.458,28.893-12.215
		c7.483-4.004,13.822-9.425,11.341-17.613c-7.68-28.601-61.824-14.379-53.454,29.08c8.526,42.548,43.263,18.29,53.555,14.82
		c26.315-22.238,80.373-50.974,119.567-46.152c-1.807-29.971-19.608-55.562-31.519-66.315c3.945,16.093,2.519,9.278,4.959,27.262
		c11.076,26.266-14.599,17.869-18.789,36.932c-9.168-27.408-1.479-21.388,15.79-37.573c-0.848-10.604-2.767-21.223-6.539-31.196
		c-15.556,3.867-17.576,13.578-31.373-4.312c13.384,4.052,14.038-9.808,28.075-3.641c-6.225-13.734-56.653-67.683-43.103-116.911
		c-21.889,28.932,7.504,52.912-11.72,89.553c-4.388,7.105,9.464,17.93-15.032,26.848c7.968-9.835-6.169-26.177,12.543-28.212
		c5.852-11.523,7.044-24.864,6.054-37.589c-7.525,4.491-42.487,50.325-29.671,99.607c24.693-3.065,11.493,23.488,25.217,32.322
		c-17.719,0-24.074-0.57-30.64-40.957c-4.996-47.561,25.149-89.488,34.695-93.991c-0.576-5.863-2.106-11.589-2.651-17.456
		c-29.883-13.687-50.769,7.467-78.146,23.667c2.317,25.615-24.538,12.047-35.402,24.904c1.729-26.167,10.976-23.129,29.141-26.581
		c18.87-4.455,50.157-41.988,84.17-25.303c-0.101-23.193,11.712-30.665,17.875-39.851c12.806-7.284,43.217-33.141,28.398-54.671
		c-35.63,6.574-26.793,43.062-39.952,46.617c-3.621,1.015-7.413,1.015-11.119,1.409c10.583-10.021,0.966-26.391,19.653-25.035
		c3.721-8.766,10.225-16.239,18.426-21.092c-62.887-11.834-69.147,47.512-151.707,43.365c3.615,1.278,7.15,2.762,10.634,4.373
		c31.947-14.51,49.316,17.094,78.818-11.609c-4.138-17.881,16.516-11.2,25.111-20.617c-0.652,9.06-0.576,14.326-6.64,17.431
		c-6.128,3.136-14.275,2.75-16.507,5.246c-29.489,28.486-48.189,0.175-77.414,11.245c33.088,18.8,30.135,17.598,52.767,19.89
		c11.499-14.501,17.751,5.147,30.166,4.146c-10.788,10.353-14.397,8.742-25.258,1.272c-7.65-5.085-9.529-1.515-27.121-6.317
		c1.407,5.672-1.266,9.055,3.469,13.316c-11.412-1.914-10.414-2.847-12.109-13.24c-7.44,8.883-6.466,14.171-21.849,8.402
		c11.066-3.162,6.206-13.671,17.244-14.224c-11.76-6.423-22.819-15.027-36.316-17.426c1.485,2.868,3.05,5.751,3.681,8.963
		c18.081,81.511-54.337,80.901-3.302,129.601c2.227-16.133,16.88-3.896,27.586-11.245c-3.325,11.699-5.332,17.189-24.278,14.27
		c11.305,10.112,39.967,23.962,44.183,25.576c17.777-15.913,22.126,12.717,38.129,15.391c-32.142,14.477-24.692-6.41-42.729-14.644
		c-12.255-5.297-24.223-11.412-35.215-19.021c-1.244,11.676-8.089,7.492-8.609,18.668c-10.966-13.409-3.44-14.678,2.025-24.379
		c-23.615-21.99-22.35-35.627-22.688-42.709c-36.759,40.924-8.009,89.466-3.843,100.475c16.577,1.242,4.97,12.411,13.507,21.869
		c-16.279-2.309-12.868-7.355-14.851-18.062c-18.254-33.457-15.925-54.586-15.967-58.756c3.303-56.37,44.94-47.752,45.693-114.109
		c-0.862-21.277-2.488-27.121-7.327-32.494c-10.8-1.114-9.108,1.946-34.857,1.121c0.252-0.904,0.525-1.793,0.803-2.676
		c0.002,0,31.125-1.353,31.125-1.353c-8.063-7.316-21.975-31.485-22.657-33.468c-0.03-1.177,0.253-2.328,0.465-3.464
		c20.612,23.815,10.202,35.856,40.28,35.978c73.66,2.006,85.896-57.298,148.228-43.067c2.045,0.712,3.903-0.848,5.852-1.277
		c11.437-3.474,23.531-1.964,35.271-3.075c47.758-3.866,27.686-32.273,65.689-50.561c-65.628,11.603-69.264-15.559-107.999,13.26
		c-1.505,0.732-0.555,2.414-0.439,3.661c0.985,4.348,0.116,9.266-3.005,12.578c-12.698,13.366-24.563,0.079-35.049,15.083
		c2-38.216,23.453-22.919,36.877-33.463c34.104-28.597,50.883-7.268,85.332-10.357c11.831-1.227,23.475-3.706,35.16-5.883
		C1537.607,848.381,1554.613,839.364,1582.695,851.692z"/>
	<path opacity="0.95" enable-background="new    " d="M210.437,854.817c31.054,12.052,11.39,28.669,15.664,40.093
		c4.656,14.24,9.64,28.706,9.978,43.84c3.438-8.671,9.079-36.382,36.669-29.292c14.535,3.758,28.983,15.604,31.878,30.277
		c8.249,45.626-54.035,60.062-44.148,14.098c0.751-16.832-6.085-19.944,14.31-27.267c-7.847,12.186,6.832,25.513-11.72,29.282
		c-9.261,29.821,31.166,32.779,38.356-0.495c7.036-34.084-38.677-58.387-54.217-34.483c-16.96,25.422-15.876,105.19-62.528,141.593
		c18.743,17.08,46.898,25.357,68.618,24.657c-17.572-10.513-19.093-13.517-22.718-15.906c-25.89-8.934-2.369-23.073-12.533-39.144
		c25.157,10.548,16.62,16.99,15.305,37.467c6.861,6.165,18.415,14.145,26.732,17.542c6.133-9.592,3.24-23.422,25.192-18.991
		c-11.729,4.931-3.42,18.585-17.668,22.314c15.802,5.473,88.586,7.938,113.987,52.919c-7.166-37.796-36.005-28.751-53.626-67.451
		c-9.858-19.969-19.724-10.777-10.17-34.584c1.59,13.094,22.618,14.096,11.27,28.833c1.563,9.183,14.525,25.426,22.253,30.777
		c1.703-9.58-5.351-63.808-49.536-91.229c-14.914,18.735-24.607-6.572-40.507-5.312c16.08-15.107,19.972-11.209,35.65-0.985
		c13.707,8.378,14.563,7.552,21.743,14.588c32.06,37.863,38.436,73.074,35.008,84.948c4.449,3.782,9.665,6.559,14.043,10.442
		c31.787-13.487,31.696-43.686,38.634-71.9c-3.191-2.131-5.984-5.307-6.408-9.261c-1.443-17.372,17.488-19.113,13.654-33.847
		c18.031,21.993,8.772,23.029-3.227,42.285c-6.911,8.831-3.374,62.43-39.942,74.859c16.652,18.594,13.059,28.712,15.441,40.855
		c-0.88,2.624-12.1,52.501,18.562,58.857c4.03-5.837,6.554-12.811,6.579-19.941c0.97-30.611-24.692-27.178-4.13-50.475
		c-2.357,12.547,17.964,21.035,3.555,31.807c3.434,8.837,4.075,18.648,1.868,27.863c51.141-33.365,16.714-83.786,76.061-137.468
		c-0.448,0.174-9.486,3.785-9.998,4.221c-13.951,33.649-47.136,22.91-47.647,63.81c8.478,5.227,6.074,13.96,3.146,17.456
		c-5.464,6.906-6.76,7.369-6.226,14.84c-11.268-11.244-9.75-15.19-2.444-26.555c5.447-8.734,0.823-16.049,8.327-28.515
		c9.963-16.962,31.621-18.66,41.239-40.103c-10.646,3.203-39.659,8.346-51.348,23.637c1.73,18.424-16.709,8.465-24.505,18.658
		c2.802-22.216,5.247-14.469,21.501-20.304c5.912-4.22,5.786-6.449,19.077-13.831c-4.957-2.582-3.728-6.03-11.548-6.857
		c8.991-7.223,10.484-4.469,17.85,0.793c-1.374-12.514-4.874-14.626,9.23-21.274c-5.155,10.452,3.981,9.912-1.222,21.89
		c11.241-2.877,28.847-6.447,37.563-13.174c-7.453-1.353-13.432-6.312-19.168-10.912c-58.913-49.496-10.859-87.592-78.808-86.261
		c8.904,12.284-11.111,15.763-11.987,27.277c-7.863-15.112-5.975-15.535,6.423-27.308c-15.497,0.861-42.768,10.525-48.758,12.826
		c-0.61,9.83-6.827,14.277-15.406,14.184c-10.562-1.228-13.444-4.346-22.324,1.939c10.646-31.901,20.988-12.912,42.33-20.506
		c10.572-4.134,27.466-9.54,36.473-10.528c-7.159-9.28,0.472-12.224-7.524-19.602c16.843,3.174,12.132,2.981,16.128,18.658
		c16.07-0.109,36.625,1.758,46.471,14.538c-6.872-56.831-51.96-66.878-68.537-73.874c-10.046,11.076-15.454-6.482-24.647-6.231
		c13.173-9.563,13.246-4.004,23.319,2.585c7.574,1.646,14.27,5.706,21.415,8.518c66.511,27.532,40.372,80.679,65.856,118.416
		c7.337,10.77,28.589,33.711,41.648,33.973c8.365-6.311,8.977-13.646,27.752-28.711c0.394,0.823,0.808,1.646,1.227,2.484
		c-20.213,19.591-13.229,14.951-24.036,26.308c8.696-1.148,45.428,7.861,48.273,11.604c-29.112,0.303-46.284-31.932-81.575,27.636
		c-24.872,41.608-7.521,80.9-55.211,110.377c-7.877,17.495-19.21,22.403-29.333,37.366c-9.962,14.819-9.241,31.423-7.842,35.357
		c7.636,13.722,6.698,24.048,2.656,39.325c38.347-53.246,63.17-40.427,66.098-85.367c-0.848-1.323-2.545-1.878-3.681-2.949
		c-8.172-6.034-5.594-18.399-1.252-23.324c6.729-7.933,11.741-11.589,10.114-21.985c24.723,22.87,2.997,28.621-3.287,54.625
		c-11.558,49.752-27.13,26.573-63.285,77.57c-14.707,20.555-20.504,45.599-69.804,55.519c-16.618,3.323-34.559,2.621-50.025-4.802
		c-1.575-1.02-2.883,0.788-4.221,1.399c-9.148,5.98-19.613-1.269-22.728-7.221c-5.148-10.234-5.96-15.094-16.572-18.148
		c51.118-13.698,16.201,31.178,78.818,27.722c21.867-1.242,45.57-11.253,56.595-20.35c17.316-13.584,43.537-69.243-5.352-93.643
		c-23.685-10.647-41.355,21.374-42.012,29.721c-0.504,8.621,13.907,12.429,17.628,11.018c13.059-7.361,14.275,13.103,25.278,18.41
		c-23.228,4.786-17.778-2.859-27.353-14.517c-10.421-3.695-33.271-7.732-3.883-40.85c-29.57,6.388-55.827-30.253-75.919-23.046
		c13.322-0.803,8.964,15.242,21.258,19.385c-20.75,5.871-17.463-1.481-27.772-15.133c-13.086,12.264-14.676,17.838-25.172,13.225
		c9.055,24.499-24.391,20.199-30.762,37.932c-8.274-27.377,3.1-29.317,21.072-39.27c-12.987-7.577-2.147-17.194-14.31-25.864
		c24.712,1.627,16.79,5.934,23.935,23.581c8.899,9.485,16.658-9.554,31.342-16.845c-40.406-10.775-54.629-46.52-62.745-69.188
		c-10.815,17.982-21.552-2.411-37.326,5.342c8.334-15.763,11.915-16.011,21.864-15.098c-15.883-13.943-30.341-33.462-28.53-55.095
		c1.26-13.708,6.787-13.386-7.281-29.378c-6.501,12.925-19.636-2.596-29.661,1.409c7.207-10.9,10.668-12.442,21.566-8.685
		c-3.091-14.488,8.796-11.641,7.933-26.278c13.852,13.092,7.266,17.782,0.697,29.186c2.147,3.918,11.182,10.711,11.907,20.592
		c-0.212,6.568-7.52,20.664,4.13,40.785c3.829,6.766,15.992,24.672,30.585,29.918c-15.748-18.528-20.332-20.448-5.489-42.527
		c-0.861,20.308,33.691,23.952,11.659,46.723c26.298,77.766,55.56,57.806,104.813,88.457c12.775,8.366,26.167,9.183,35.134,5.696
		c-5.135,0.01-9.23-4.438-10.357-9.165c-1.447-8.769,0.182-10.354-6.519-15.941c20.469,2.032,15.718,2.236,21.97,23.228
		c17.526-8.827,32.467,3.072,44.789,18.461c-0.413-33.12,19.518-40.578,32.473-58.665c-35.358-9.026-14.059-52.891-22.657-70.552
		c-34.357,48.528-64.646-4.073-65.315,30.999c12.145,3.501,11.2,14.966,9.054,19.637c-4.679,10.408-4.573,13.015-1.555,18.84
		c-21.839-11.898-14.325-17.955-10.629-35.655c1.317-5.435-2.909-14.877,9.599-18.067c9.107-2.145,21.704,7.375,34.377,1.565
		c14.591-6.765,20.833-17.787,23.091-20.006c-10.339-19.122-35.232-32.85-53.924-39.098c-30.173,3.289-46.34,48.881-45.001,72.718
		c2.197,35.934,36.954,60.656,52.899,49.783c6.655-4.226,13.556,1.277,15.487,5.655c4.268,9.664,4.305,9.784,10.574,12.427
		c-16.249,3.194-15.501,4.853-26.091-12.477c-0.495-0.667-0.899-1.904-1.944-1.585c-23.285,3.721-34.098-8.935-44.718-25.167
		c-6.842,14.458-18.544-1.004-30.024,2.237c10.923-15.995,13.792-9.789,27.782-5.984c-10.83-23.519-7.101-47.91,3.848-70.986
		c-4.04,3.058-15.407,15.48-30.403,17.451c-16.374,2.176-23.549-12.723-24.914-14.098c-22.82-3.994-3.339-25.693-11.993-38.977
		c27.694,11.155,14.628,21.982,15.527,38.548c19.006,37.426,57.269-20.759,82.807-31.438c-16.579-5.142-38.831-4.219-57.716-12.871
		c0,0-32.448,1.396-60.377-13.422c-2.454-1.283-4.767-2.813-7.19-4.131c-0.144,11.863-5.989,8.367-3.721,18.86
		c-9.043-6.187-8.063-8.871-8.271-12.447c-12.699,20.243,11.469,58.575,28.111,69.633c9.406,6.18,15.261,8.373,24.5,19.935
		c13.794,17.064,3.204,8.117,12.306,12.472c13.793,4.653,0.066,20.09,7.539,30.312c-17.986-7.836-14.841-8.214-13.719-27.687
		c0.37-2.698-12.224-21.305-26.444-28.772c4.141,13.868,9.498,15.696-5.272,26.505c4.139-11.61-13.327-20.062,1.838-28.742
		c-11.88-7.329-46.108-44.523-31.468-75.041c-9.175,0.937-10.336,0.021-15.295,5.62c2.541-17.329,0.454-13.453,18.941-19.047
		c-30.538-32.794-10.864-44.251-51.48-69.279c-4.646-2.807-10.038-4.883-15.552-4.277c-12.443,15.311-16.367-2.114-30.348,2.247
		c13.14-17.689,13.563-8.939,31.337-5.166c19.99-0.737,41.753,28.812,43.921,31.191c-0.854-12.947-0.949-33.954-5.999-46.243
		c-27.052-10.493-2.511-22.894-12.811-39.083c20.247,7.504,18.514,13.822,15.669,32.019c-1.359,10.231,4.205,8.295,5.181,38.371
		c1.217,23.8,2.947,39.879,20.309,55.979c23.579-16.786,34.85-49.426,43.289-76.949c-6.988,4.195-8.162,12.112-26.545,18.052
		c-4.283,15.645-20.216,0.129-30.519,3.429c15.429-20.748,20.903-4.457,30.332-6.458c12.382-3.092,11.668-7.028,27.979-19.107
		c2.51-7.079,4.201-14.457,5.347-21.88c-7.909,5.405-10.863,0.434-16.184,8.564c-0.035-3.974-0.247-8.039,1.116-11.841
		c-3.854-0.288-18.239,1.479-26.767-2.954c-34.83-18.633-1.945-72.367,11.084-27.146c2.858,3.701,1.353,9.316-2.343,11.856
		c-5.018,3.346-7.048,3.497-8.256,9.382c-6.386-14.816-0.969-13.901,7.514-21.839c-3.646-31.034-37.531-3.311-11.291,21.476
		c8.59,8.042,21.46,6.505,31.817,6.216c-4.87-3.872-6.549-8.951-14.406-8.099c16.461-11.851,15.599-4.282,28.656,3.53
		c0.831-18.981-4.252-34.936-10.488-52.843c-19.745-2.309-9.082-26.752-9.407-31.282
		C213.442,859.629,211.851,857.16,210.437,854.817z"/>
	<path opacity="0.95" enable-background="new    " d="M1222.676,960.357c13.722,22.114-3.094,20.826-5.438,30.802
		c-10.915,36.205-26.437,29.822-26.762,72.43c22.137-17.276,19.677-26.812,30.378-30.034c-5.209-8.776,5.454-10.682,7.125-20.456
		c7.499,8.242,4.717,12.736-0.192,18.269c9.825,3.476,4.794,5.288,12.861,5.57c-10.032,7.731-8.623,3.737-17.754-0.985
		c-8.176,2.013-11.968,11.384-17.284,17.719c-4.361,5.327-13.997,12.112-15.381,14.926c-1.445,43.762-10.75,48.361-22.91,56.767
		c15.944,5.097,20.213-0.803,34.165,13.149c13.51,4.329,16.801-1.711,19.496,17.517c-8.922-8.328-17.938-1.024-21.662-10.861
		c-0.611-1.581,1.345-8.983-10.084-12.7c-6.574-2.181-13.553-2.444-20.309-3.792c16.762,15.45,27.454,46.781,37.816,62.725
		c4.501-16.83,17.083-2.78,27.878-11.281c-6.534,18.546-7.282,14.191-25.566,14.972c12.448,21.376,32.501,23.709,56.166,17.325
		c0.887-9.596,12.343-3.344,19.526-6.67c-5.518,15.311-10.881,7.607-18.587,9.453c-14.397,3.226-17.356,3.176-28.04,2.989
		c27.559,18.567,22.257,17.109,25.909,20.87c14.602,7.318,20.243,1.36,19.486,23.995c-7.698-12.425-24.894-2.307-22.354-22.713
		c-1.909-4.002-18.461-16.89-32.266-24.283c-36.397-13.213-35.321-78.872-82.953-100.061c2.698,3.369,13,13.162,16.007,34.786
		c11.365,0.472,11.798,0.445,14.139,10.134c-5.382-4.598-8.178-0.466-13.401-3.045c-0.994,30.667-0.243,24.095-8.443,46.011
		c16.225,22.556-17.119,21.595-17.966,37.821c-7.592-22.957-6.181-20.15,13.775-36.079c2.861-2.153,17.102-39.288,6.171-68.396
		c-2.926,12.298-14.936,5.141-21.93,16.143c-1.635-20.923,5.258-16.751,18.279-23.203c-10.952-18.805-20.337-19.92-24.672-20.925
		c5.859-6.777,28.451,9.248,35.437,14.432c14.029-5.304,20.013-16.656,22.49-31.469c-9.127,0.33-13.07,5.009-17.986-7.887
		c7.768,4.835,11.442-4.54,18.723,3.504c2.447-20.378-0.146-38.155,5.009-53.818c3.327-10.23,16.672-21.33,22.859-43.724
		C1203.082,971.587,1222.792,975.41,1222.676,960.357z"/>
	<path opacity="0.95" enable-background="new    " d="M593.851,1123.607c0.823,0.818,1.939,1.469,2.419,2.575
		c-2.041,18.13-17.466,37.24-17.466,37.24c4.767,13.674,16.852,20.077,31.398,22.334c-0.792-11.669-3.961-12.871,7.746-17.931
		c-4.596,9.087,4.342,9.581-3.217,18.749c20.418,2.344,38.246-0.119,53.565,4.959c10.437,3.429,20.967,16.396,44.112,23.016
		c12.513-12.949,16.346,7.349,29.484,8.089c-20.514,13.651-21.662-2.708-29.964-5.186c-35.54-10.574-35.804-29.208-73.011-26.894
		c11.059,17.331,24.192,17.879,29.964,30.146c9.841-4.929,10.76,6.289,20.466,7.236c-8.289,7.054-11.735,5.461-18.648-0.359
		c-0.642,6.746-6.111,7.038-5.428,12.811c-9.21-10.932,0.168-12.423,0.975-17.855c-1.591-7.362-11.473-12.041-16.759-16.3
		c-5.878-4.56-9.771-11.114-15.431-15.901c-19.603-1.073-46.186-1.748-55.898-21.349c-0.384-0.5-0.46-1.777-1.303-1.212
		c-3.394,11.138-1.863,25.88-11.129,32.216c-9.235,7.695,5.049,17.708-19.501,20.986c8.354-7.108,1.115-18.983,11.23-21.743
		c1.436-0.538,9.903,1.663,13.386-13.351c1.298-5.438,1.732-11.028,2.722-16.517c-18.688,17.767-41.968,24.699-62.705,37.321
		c8.307,1.907,9.903,9.263,8.958,13.391c-1.941,9.739,0.035,10.984,1.969,14.255c-18.046-5.109-13.575-8.521-14.336-25.535
		c-24.614,15.155-22.306,36.614-17.653,56.171c10.614,2.728,2.801,12.231,6.983,19.834c-15.99-6.235-7.299-10.987-9.695-19.087
		c-2.111-9.034-3.767-18.35-2.843-27.646c-5.851,8.259-12.842,19.5-18.198,23.839c-13.508,11.57,1.803,21.885-26.944,21.708
		c6.702-4.508,5.783-5.118,8.195-14.78c1.586-5.226,7.256-9.831,12.891-8.019c5.19,2.336,21.926-24.569,24.227-28.535
		c3.21-4.789,4.177-15.042,23.894-27.565c30.911-19.27,59.463-21.297,78.045-58.61c-5.569,3.524-6.945,9.422-34.73,15.896
		c-1.412,10.469,1.479,11.254-10.261,14.098c5.024-5.083,0.272-8.068,3.363-13.689c-26.857,1.942-36.722-4.989-46.304-8.115
		c-22.671,15.248-20.542-15.357-37.462-18.001c39.78-17.816,14.148,26.265,80.858,23.571c7.701-0.51,15.613-0.777,22.905-3.575
		c-13.301-5.406-3.797-14.531-15.977-22.102c21.626,0.7,14.72,0.44,23.425,18.325
		C592.765,1140.874,592.576,1130.588,593.851,1123.607z"/>
	<path opacity="0.95" enable-background="new    " d="M1070.827,1158.333c-9.144,43.676-13.03,38.021-3.313,51.515
		c49.465,60.662,106.192,24.892,140.831,80.792c0.778,1.525,2.631,1.803,4.024,2.58c9.19,4.433,15.987,12.25,23.399,19.021
		c37.438,35.228,44.768,4.043,85.301,13.886c-56.433-40.446-30.235-47.77-70.107-62.488c-5.08-1.611-10.22-3.317-15.583-3.59
		c-14.935,24.573-30.01-6.717-47.885-5.216c27.949-25.454,32.596,0.211,49.637,2.595c43.946,3.856,42.383,31.703,67.133,52.479
		c36.236,30.372,51.372,22.856,67.118,67.093c7.434,21.926,8.315,44.688-1.439,65.583c16.28,23.537-16.159,22.971-23.49,42.143
		c-8.698-29.85-2.239-23.725,19.84-41.613c13.775-25.381,8.147-55.118-4.469-81.216c-10.119-19.323-21.084-25.672-42.835-32.923
		c-36.969-12.093-69.121,25.148-59.296,44.693c3.068,5.961,34.222,43.24,42.027,7.423c-6.457-21.259,10.749-12.027,17.552-27.449
		c1.965,8.386,3.533,13.523-0.313,17.891c-4.918,5.627-13.757,7.644-14.537,10.73c-4.385,13.416-11.37,30.553-40.497,2.696
		c6.641,29.172-29.703,55.624-23.132,75.914c0.425-14.542,15.687-8.264,19.461-21.233c6.577,20.967-3.413,19.082-15.042,27.883
		c14.112,14.911,17.296,14.911,13.209,25.136c11.296-4.725,20.664,4.816,22.763,10.937c3.879,11.036,5.618,16.755,15.537,19.986
		c-26.393,4.738-26.779,3.585-39.578-21.248c-7.82,13.051-18.408,2.341-25.944,14.522c1.097-27.457,15.551-18.676,23.945-24.313
		c7.533-11.566-12.3-17.84-17.224-31.181c-11.433,45.731-58.178,58.676-69.163,62.887c17.199,9.394-2.046,22.591,5.267,37.215
		c-12.028-6.55-17.232-10.042-14.805-22.228c-7.279,8.652-18.433,18.136-30.363,24.379c-28.012,14.361-30.967-8.708-54.307,11.72
		c13.521,9.408-2.511,16.609,1.176,29.646c-11.728-7.354-11.697-10.917-8.518-21.405c-14.336,2.849-14.374-10.35-26.227-7.958
		c14.663-15,18.514-5.995,29.398-0.702c5.379-3.935,14.059-14.535,25.146-11.25c31.88,8.994,62.541-22.459,65.593-34.887
		c-14.974,10.521-17.17,22.677-42.33,4.948c18.541,1.51,27.3-34.057,46.738-11.604c75.985-24.646,58.017-55.196,90.331-107.681
		c5.63-9.751,7.968-22.142,3.727-32.852c2.263,14.662-19.209,7.475-24.849,17.623c1.123-22.163,5.81-15.728,23.101-22.253
		c-8.913-17.22,3.266-32.177,18.304-44.481c-32.412-0.207-39.197-18.254-58.317-32.655c-10.713,35.965-52.379,13.439-70.718,22.667
		c39.396,26.693,12.447,48.652,19.986,61.452c2.07,3.838,7.332,4.721,11.169,3.424c8.816-21.799,23.358-0.107,38.27-6.898
		c-12.66,22.254-17.137,13.833-36.563,10.245c-34.194-3.583-5.946-24.398-15.856-44.658c-7.403-14.586-17.525-20.161-19.854-22.177
		c-22.826,12.837-36.335,45.202-38.972,54.186c5.268,25.495,31.432,38.371,55.272,43.305c34.979,7.142,73.611-17.659,68.769-47.526
		c-0.167-2.898-2.712-4.984-2.828-7.882c-1.651-13.068,14.073-9.764,19.456-21.875c4.522,19.386,1.538,16.136-14.144,26.894
		c3.838,22.103-6.703,33.9-25.136,45.582c15.395,8.442-1.377,18.28,2.545,30.297c-15.902-10.942-10.262-13.411-6.206-28.07
		c-4.485,1.823-26.894,16.443-71.057-3.817c15.926,20.724,28.85,38.744,3.59,54.928c-9.299,25.156-23.258,2.464-39.214,12.296
		c13.376-26.905,15.763-15.305,38.22-15.305c24.368-11.255,8.496-37.442-11.917-56.671c-3.283-4.296-15.197-10.775-19.072-26.666
		c-3.595,11.881-4.171,24.389-6.554,36.528c-3.72,20.982-7.587,18.765-6.928,27.616c0.288,21.587-5.438,43.391-17.148,61.614
		c8.954-1.652,8.158,5.905,19.016,3.616c-5.925,8.407-8.685,8.601-12.937,8.135c10.454,5.948,16.309,5.789,29.297,0.939
		c50.903-20.083,31.484-34.413,72.198-61.786c5.752-19.705,17.405-4.576,31.034-11.114c-6.544,19.777-13.766,13.672-28.394,13.3
		c-3.38,1.498-20.814,12.758-27.641,26.444c9.964-2.941,16.257-10.33,26.268,5.312c-10.476-2.56-22.204,11.557-28.59-1.676
		c-8.99,12.521-44.936,45.782-75.116,31.362c0.873,7.941-0.182,10.192,5.524,15.164c-19.418-1.642-14.731-5.999-18.966-18.865
		c-16.476,17.45-30.419,19.01-38.26,21.284c-13.455,7.951-37.04,30.096-35.331,45.622c15.409,15.686-2.273,14.863,2.252,30.378
		c-18.405-12.493-7.674-16.995-5.166-31.347c-0.18-16.235,19.063-34.595,31.544-43.9c-15.588,1.373-31.716,0.661-46.632,6.125
		c-4.692,25.622-25.686,2.974-39.275,13.159c15.078-31.168,18.502-10.787,41.113-16.916c29.245-9.526,59.53,3.695,85.564-24.601
		c-16.289-22.541-50.021-36-76.889-43.148c4.25,6.715,13.354,9.917,17.84,26.338c16.651,6.384-0.232,18.541,3.494,30.484
		c-20.721-15.362-3.817-22.313-6.337-30.065c-3.973-16.074-14.018-16.937-18.961-28.055c-7.074-2.505-14.452-4.368-21.91-5.297
		c4.481,5.026,0.216,9.694,7.983,15.901c-3.868-0.056-7.877,0.465-11.538-1.096c0.343,7.362,0.616,14.861-1.045,22.097
		c-3.077,13.276-19.923,21.776-34.579,19.956c-8.797-1.318-22.026-17.903,1.202-25.036c21.896-7.237,11.593,4.932,25.545,9.538
		c-14.51,5.773-13.036,1.88-21.703-7.589c-20.715,1.62-16.067,25.17,5.378,19.844c22.55-5.556,23.515-20.698,22.329-40.28
		c-5.408,5.906-8.231,6.062-8.231,14.199c-12.872-19.906,0.445-20.098,3.429-28.696c-18.957-0.59-34.696,4.268-52.601,10.559
		c-5.102,24.211-26.464,2.73-39.058,12.467c11.718-27.996,19.88-14.672,38.927-15.467c19.993-6.256,26.335-8.962,44.582-10.407
		c-4.605-2.07-9.564-3.257-14.093-5.494c-31.534-14.263-9.738-58.911,16.497-63.124c47.257-6.519,56.281,54.678,14.108,44.486
		c-15.758-1.706-20.389,7.289-28.297-14.618c10.841,7.159,26.633-5.513,29.302,11.624c27.736,14.649,36.253-37.18-7.064-38.952
		c-28.257-0.544-44.899,33.634-34.145,48.96c15.454,23,109.201,18.644,147.875,68.663c22.791-25.319,23.527-53.982,25.01-69.471
		c-8.297,14.615-12.557,18.592-16.249,23.465c-7.177,26.316-25.491,1.504-39.209,12.775c17.419-43.762,34.206,13.393,55.166-42.285
		c-13.483-7.846-22.112-3.001-19.143-24.98c7.592,12.178,17.395,3.021,22.43,17.436c8.46-24.454,4.522-81.099,52.333-113.715
		c-29.89,4.958-25.684,21.904-51.49,43.592c-16.311,13.49-17.383,7.39-25.571,16.335c-6.822,7.648-11.167,11.66-23.733,3.767
		c10.449-2.427,16.175-22.791,28.111-11.215c11.823-3.56,22.929-12.839,30.802-22.283c-14.04-3.042-71.501,11.43-91.204,49.556
		c19.801,14.964-8.71,24.547-5.322,40.265c-18.748-18.931-7.908-22.127,6.09-47.743c15.263-27.998,73.685-49.706,92.618-44.592
		c3.51-4.64,6.534-9.635,10.276-14.093c-2.111-4.605-3.186-9.735-6.226-13.861c-11.725-16.278-60.983-23.463-65.497-24.712
		c-18.922,19.949-22.892-8.012-42.991-7.438c21.041-16.845,21.043-9.872,41.224,2.959c13.291,8.16,64.255,4.888,75.621,40.583
		c30.83-30.563,65.251-2.037,90.144-19.309c7.294-5.174,9.779-13.574,9.342-14.947c-23.953-17.374-49.048,4.518-54.353,5.681
		c-5.354,1.395-10.089-2.649-15.709-7.978c12.085,3.45,19.797-18.917,31.61-3.59c12.839-4.836,21.152-3.254,27.914-1.873
		c-31.883-51.061-83.902-16.492-137.548-76.222c1.419,3.358,2.833,6.721,4.13,10.139c30.531,10.286,25.446,49.18,64.012,47.511
		c11.43-15.814,19.864,4.656,32.433,3.09c-11.672,11.767-15.977,9.474-26.222,2.888c-10.472-6.21-18.365-0.866-31.302-10.129
		c-14.977-10.671-17.802-31.079-37.664-39.593c7.689,32.801,12.014,38.305,23.182,51.086c21.345,3.049,6.972,12.26,18.567,24.505
		c-25.398-2.408-14.723-15.972-20.647-22.435c-6.75-8.176-7.5-7.663-12.997-18.032c-3.2,5.152-6.854,4.883-7.029,11.69
		c-6.294-9.337-5.505-9.555,1.066-18.138c-14.884,3.154-16.019,2.062-21.546-9.225c11.329,5.231,11.15-4.361,22.157,1.596
		c-3.223-11.256-6.091-27.866-13.255-37.75c-4.784,17.502-33.748,50.527-73.041,54.969c-1.524,0.257-15.048-1.685-21.162,20.319
		c-1.99,7.357-3.116,14.982-3.161,22.607c14.311-7.786,14.295,9.703,27.116,12.048c-14.75,10.621-20.011,0.723-27.02-6.458
		c0.767,15.458,7.762,33.946,12.715,48.687c26.126,3.546,5.092,24.159,16.179,37.755c-27.488-8.138-16.89-18.256-18.522-36.917
		c-1.192-3.784-9.686-23.844-12.548-41.638c-11.378,6.82-10.359-0.608-19.385,6.827c1.809-16.814,6.245-12.057,18.668-15.729
		c-0.434-16.54,1.56-35.718,14.28-46.445c-56.677,9.393-63.29,44.134-73.793,68.537c11.02,10.863-6.898,15.012-6.024,25.288
		c-2.151-3.631-5.61-7.1-5.161-11.639c0.26-5.625,7.249-9.85,7.908-13.598c17.561-78.026,87.792-70.733,102.298-74.849
		c34.133-9.705,58.297-42.079,58.201-52.833c-5.101-6.47-20.502-15.812-27.272-26.141c0.828-0.394,1.666-0.773,2.525-1.136
		c14.138,14.976,13.015,11.38,24.778,22.319c-0.273-2.883-0.51-5.822,0.227-8.66
		C1068.679,1156.121,1067.023,1160.641,1070.827,1158.333z"/>
	<path opacity="0.95" enable-background="new    " d="M1036.591,1191.144c-6.052,24.817-13.152,11.455-26.247,18.148
		c-32.624,17.22-39.059,2.086-69.784,32.387c4.272-0.035,8.488,1,12.775,0.793c15.523-0.59,22.846-4.865,30.423-0.919
		c1.488-10.64,13.768-2.712,19.597-9.836c-2.145,8.377-0.58,12.225-13.376,13.119c4.465,7.963-0.312,7.656,5.262,13.068
		c-22.178-3.084,2.286-19.665-30.348-13.795c-10.049,2.067-21.762-0.46-27.086,0.247c-6.634,3.797-27.118,32.62-56.878,24.056
		c3.716,7.791,10.508,13.735,13.82,21.778c3.688,8.684-1.016,8.124,2.848,14.846c6.865,9.579,8.795,12.779-0.384,22.839
		c0.119-7.201-3.111-8.257-6.817-13.144c-9.15-15.638,17.682-4.721-10.755-42.436c0.469,24.484-12.625,47.86-17.769,70.981
		c13.164-9.281,15.234,9.414,27.52,11.73c-16.922,10.107-17.744,1.453-28.474-7.786c-6.096,25.264,7.637,39.276,27.338,52.076
		c11.759-5.333,9.848,7.347,18.749,9.16c-14.073,6.941-11.398-0.925-22.44-8.079c-13.344-8.391-16.359-12.923-19.153-15.482
		c1.385,9.223,4.819,21.589,3.631,30.524c-1.433,9.047,16.885,17.988-3.272,32.473c3.118-14.801-16.31-18.443,0.111-31.65
		c2.106-5.336-3.137-34.506-6.494-42.183c-13.009-36.499,32.445-82.79,12.74-128.141c0.233,14.57-5.018,25.661-12.836,36.781
		c5.874,9.306,8.924,5.4,2.828,17.133c-0.76-6.879-5.281-5.364-7.554-11.75c-18.159,20.16-25.582,20.349-38.573,26.929
		c-1.511,14.101-14.059,14.996-20.753,12.578c-10.615-3.193-12.175-2.542-18.542,1.116c12.237-24.106,10.737-16.764,35.776-15.573
		c18.681-3.554,44.764-28.286,51.974-43.668c-12.979,5.506-13.133-7.229-26.626-4.555c13.2-15.128,14.548-8.728,29.211-3.343
		c5.964-23.296-0.761-29.212-4.666-35.079c1.166-0.066,2.343-0.081,3.525-0.056c5.703,8.245,10.572,17.045,13.265,38.326
		c5.88,1.678,17.25,8.459,38.043-6.478c-6.483-6.878-12.134-4.503-7.054-18.224c3.426,8.851,11.361,5.779,10.856,15.32
		c7.625-6.145,14.512-13.119,21.718-19.728c29.473-27.023,33.088-11.251,67.325-29.348
		C1011.021,1188.065,1025.721,1199.791,1036.591,1191.144z"/>
	<path opacity="0.95" enable-background="new    " d="M745.397,1210.838c0.843,0.222,1.722,0.419,2.52,0.828
		c0.096,3.105-0.353,6.221-0.348,9.342c-0.202,8.847,1.444,17.593,1.646,26.424c6.315-6.383,36.241-26.527,42.638-25.899
		c-9.634,9.485-38.08,19.205-40.689,31.726c-13.72,77.725,57.482,95.28,41.724,161.827c0.076,1.934,1.222,3.686,1.646,5.585
		c6.018,20.803-5.222,50.014,21.496,71.466c6.009,5.535,13.642-2.101,31.807,28.373c-9.181-55.483,1.453-47.484,0.712-72.269
		c0.414-13.177-10.153-30.805-14.568-36.276c-30.89,4.958-14.732-24.681-30.484-37.528c25.244,1.093,25.813,7.316,29.595,27.969
		c2.293,10.752,3.133,5.951,8.039,15.073c22.956,42.056,1.201,43.493,6.378,82.236c6.33,48.179,19.654,55.799-4.464,98.309
		c-10.024,17.124-23.479,31.095-42.042,37.649c-1.752,0.313-1.469,2.419-1.934,3.737c-0.768,4.58-4.1,8.518-8.402,10.195
		c-16.4,5.932-23.168-9.508-37.361-0.01c13.544-26.578,15.884-18.741,43.481-15.583c38.537-11.308,63.498-64.312,56.504-90.74
		c-8.505-60.243-101.095-71.525-81.772-3.666c3.717,12.54,12.743,12.163,23.566,4.817c8.957-18.906,17.758-1.51,31.625-6.872
		c-8.299,15.228-11.454,13.54-26.858,9.594c-5.391-1.267-8.263,4.773-16.673,5.59c-13.595,0.723-17.648-19.02-17.375-32.731
		c-14.256,25.294-59.693,18.641-70.021,37.341c11.434-8.409,15.354,4.436,28.474-0.616c-10.203,18.448-14.417,11.651-30.075,8.872
		c-1.055,3.716,0.222,7.589-0.293,11.371c-0.824,12.798-0.302,11.463-8.246,15.815c4.418,1.677,7.928,5.448,9.023,10.084
		c4.156,18.885-12.037,20.182-4.242,38.427c-24.299-14.419-19.055-20.856-12.7-42.598c-15.161,3.396-13.988-10.859-28.388-8.18
		c21.12-21.767,25.551,3.486,37.816-1.404c7.136-3.267,0.961-19.307,6.165-32.938c-42.149,22.139-77.302,2.981-93.451-4.58
		c4.763,20.234-17.807,14.331-22.561,29.994c-6.562-16.609-1.514-20.754,4.868-26.156c-6.963,0.838-14.002,0.207-20.955-0.46
		c-49.982-6.123-30.772-31.83-64.068-33.776c1.481,17.941-13.384,8.915-20.274,22.026c-2.056-15.009-1.423-15.383,9.331-21.455
		c-12.169-6.609-2.136-15.262-13.517-24.404c19.802,3.203,14.655-0.569,21.688,20.511c3.085,0.747,6.277,0.414,9.407,0.818
		c25.884,2.234,11.928,35.939,76.369,34.241c4.029-0.308,7.872-1.732,11.442-3.57c-21.982-2.299-28.657,1.452-33.711-26.061
		c13.517,14.033,42.218-5.775,41.174,24.707c70.495,33.67,87.223,4.774,112.74-4.954c20.491-7.687,43.257-6.673,52.676-27.176
		c-11.865,9.656-16.196-8.122-29.434-6.07c15.178-16.064,20.642-4.255,32.004,0.672c5.074-18.402,25.672-20.502,44.567-18.37
		c-22.789-24.277-15.448-45.12-18.405-64.522c-31.99,18.362-47.142-27.131-66.068-33.973c4.133,22.948-3.009,36.552-10.917,42.224
		c-5.379,4.157-29.569,13.544-13.285,25.631c1.71-0.159,9.619-6.117,18.138,3.923c5.168,7.339,2.664,13.567,14.159,18.471
		c-23.765,4.994-19.24,2.149-32.695-18.098c-1.098-1.76-13.94-10.22-4.873-20.733c5.31-6.494,18.135-8.614,23.223-19.178
		c7.685-15.077,3.487-29.227,3.439-33.099c-25.011-7.681-62.192,6.158-68.269,14.235c-15.184,23.505,4.744,94.15,66.512,95.027
		c23.303,0.255,29.099-21.29,31.302-22.945c10.43-8.02,15.839,5.398,27.969-0.46c-9.492,17.132-12.083,12.716-28.989,9.225
		c-13.606,17.56-27.976,19.602-50.147,14.427c5.695,17.332-14.277,11.24-19.481,23.243c-3.999-19.739,3.863-17.327,15.295-24.243
		c-28.63-11.03-36.255-26.882-47.571-55.262c-0.981,42.404-16.495,46.064-36.321,43.764c-23.015,12.474-19.435-16.414-36.164-19.001
		c25.861-11.865,26.692,5.036,37.77,16.204c39.28,14.379,27.656-59.863,36.74-80.747c-7.781,4.085-14.578,9.715-21.571,14.972
		c-16.016,12.359-30.741,18.214-30.741,18.214c-15.295,16.699-35.584,28.984-57.741,33.927c8.185,9.231,1.428,9.773,10.579,16.012
		c-11.725,1.422-11.088,0.103-14.755-2.929c2.249,9.21,6.65,15.031,19.057,20.536c39.855,17.114,52.661,6.649,67.315,5.363
		c11.329-1.086,28.525,2.318,28.525,2.318c17.465-10.74,15.324,10.382,29.737,14.078c-20.754,8.532-18.265,1.01-29.711-10.589
		c-1.765-0.858-22.65-6.139-38.386-0.884c15.141,7.58,17.026,5.143,15.093,22.43c-5.878-10.566-23.953-5.994-18.981-21.667
		c-14.469,3.804-68.346-0.753-75.318-30.888c-5.093,6.585-7.525,7.127-6.948,14.75c-12.409-13.566-6.133-15.349,0.076-26.848
		c-23.432,1.08-34.907-7.743-42.133-11.947c-15.881-3.96-46.94-5.122-57.438,7.468c3.768,18.598-13.642,10.099-19.875,23.182
		c-3.052-26.331,10.162-16.822,20.425-27.828c11.621-9.67,36.26-9.327,51.263-7.009c-7.681-7.497-24.765-23.055-37.053-28.595
		c-20.09,14.04-21.106-14.302-36.937-18.597c9.688-3.074,17.422-7.496,24.97-0.005c6.899,6.405,8.17,13.17,14.745,16.623
		c29.31,13.753,37.533,44.373,79.106,43.86c5.604-33.627-23.048-84.22-23.824-85.22c-1.934,8.188,2.372,15.943-5.832,31.161
		c1.511,24.228-12.773,9.566-19.34,24.596c-2.399-18.565-0.717-15.875,15.093-24.172c7.945-3.748,5.55-27.11,8.231-35.377
		c-3.58-6.665-7.155-13.427-11.937-19.319c-1.552,10.103-6.929,7.07-5.469,17.391c-2.903-2.595-6.039-5.373-7.276-9.185
		c-48.574,54.528-79.18-31.932-37.346-12.911c21.707,9.584,5.077,14.406,12.402,25.555c-12.943-4.992-11.44-6.775-10.134-20.708
		c-21.288-14.448-30.696,11.761-0.874,21.996c13.034,4.355,21.581-1.917,34.7-16.997c-8.074,0.272-9.938-1.304-15.669,4.146
		c3.418-18.569,4.807-13.428,22.814-17.396c-15.434-17.361-43.985-29.954-44.986-29.848c-23.498,12.317-19.153-17.18-36.437-18.966
		c13.682-5.245,19.454-6.91,27.227,2.025c28.47,31.655-1.877,0.962,50.187,38.482c-1.858-4.701-4.444-9.094-6.1-13.881
		c-12.546-34.13,38.916-48.947,59.882-30.105c26.177,23.119,7.22,59.395-12.195,51.54c-8.596-3.324-6.826-7.048-20.218-19.638
		c-9.362-7.768-7.31-13.034-2.141-23.47c0.493,13.247,23.174,12.53,12.311,29.287c12.963,23.755,35.539,7.39,32.11-14.391
		c-8.031-45.002-77.238-32.185-67.679,2.616c6.797,26.027,63.26,86.717,55.418,142.608c25.526-0.88,53.451-16.877,66.199-31.378
		c-20.169,5.175-22.069,3.835-27.348,4.999c-23.976,12.751-18.666-15.781-36.892-18.804c47.409-16.784,9.65,30.593,68.885,9.256
		c-2.92-14.22-14.15-17.263,4.373-31.423c-4.308,12.893,10.164,14.591,3.54,28.131c20.142-9.138,60.348-54.453,117.265-43.143
		c-31.178-22.358-36.291,6.959-91.578-12.533c-16.961,0.806-19.742,2.32-24.844-13.851c11.804,7.193,24.842-6.468,28.05,12.154
		c11.467,5.812,24.722,7.024,37.376,6.059c-4.485-9.278-55.414-43.123-99.596-29.62c5.236,20.862-22.606,13.681-32.292,24.904
		c2.455-27.291,7.325-20.45,28.989-27.126c59.007-12.383,102.264,23.172,106.045,31.413c5.847-0.505,11.533-2.186,17.401-2.555
		c12.819-26.739-5.962-52.486-23.43-78.01c-30.348-3.529-8.806-23.69-25.46-35.897c33.026,6.15,20.529,11.383,28.348,35.018
		c7.677,14.098,38.29,46.552,23.894,78.616c24.203,0.326,30.836,11.911,39.618,17.532c12.567,14.845,29.565,44.786,54.999,28.742
		c-2.51-13.26-11.255-23.04-23.829-28.701c-11.213-5.481-24.692,0.62-24.116-22.445c8.95,11.47,26.035-0.551,24.833,19.678
		c14.217,5.925,19.336,16.195,21.137,18.067c12.481-59.878-52.451-79.445-43.163-151.722c-1.348,3.61-2.868,7.15-4.383,10.695
		c12.557,39.06-16.62,49.98,11.387,79.1c18.632-2.914,10.567,14.118,20.597,25.147c-7.701-0.578-13.274-0.694-16.007-4.595
		c-4.758-6.137-3.663-15.901-6.645-18.582c-28.317-29.326-0.348-47.651-11.21-77.459c-14.783,26.759-17.825,26.91-19.865,52.888
		c7.47,5.311,4.876,12.884,2.495,16.037c-5.565,6.643-6.844,6.733-6.569,14.346c-2.994-3.843-7.074-7.559-7.433-12.704
		c0.346-7.934,8.553-13.918,8.766-18.395c0.768-7.266,1.752-14.532,3.595-21.612c-6.681,2.035-7.586-1.734-13.376,3.59
		c2.473-10.686,1.24-10.198,13.321-12.169c-11.575-9.499-12.579-6.124-8.564-21.672c4.916,11.504,10.948,4.913,14.538,16.38
		c0.705-1.001,14.888-22.2,17.254-35.609c-17.191,9.207-61.235,11.701-93.062-15.098c-12.688-10.044-33.677,3.438-45.405,15.315
		c15.411,3.095,4.431,16.992,11.159,27.772c-18.417-5.31-13.574-9.533-14.644-23.667c-7.932,7.518-24.794,40.994-24.955,43.643
		c15.253,21.651-15.406,21.554-15.406,38.068c-16.664-28.015,9.908-30.414,13.911-41.608c5.403-12.624,11.649-24.944,19.41-36.291
		c-12.463-1.923-6.533-8.042-18.713-8.604c11.423-9.715,13.654-5.821,24.212,1.888c3.987-3.371,21.47-24.141,42.986-22.682
		c-40.646-36.355-87.796-8.727-100.404-3.727c0.113,14.965-12.985,5.789-21.996,13.502c3.042-16.934,6.405-12.292,18.431-15.053
		c65.975-35.433,95.081-4.366,118.562,13.381c30.864,22.931,76.616,17.841,85.73,9.761c2.579-1.716-0.268-14.92-0.49-21.248
		C744.72,1223.668,744.7,1217.225,745.397,1210.838z"/>
</g>
</svg>
